<?xml version="1.0" encoding="UTF-8" standalone="no"?>
<!-- Generator: Adobe Illustrator 21.1.0, SVG Export Plug-In . SVG Version: 6.00 Build 0)  -->

<svg
   xmlns:dc="http://purl.org/dc/elements/1.1/"
   xmlns:cc="http://creativecommons.org/ns#"
   xmlns:rdf="http://www.w3.org/1999/02/22-rdf-syntax-ns#"
   xmlns:svg="http://www.w3.org/2000/svg"
   xmlns="http://www.w3.org/2000/svg"
   xmlns:xlink="http://www.w3.org/1999/xlink"
   xmlns:sodipodi="http://sodipodi.sourceforge.net/DTD/sodipodi-0.dtd"
   xmlns:inkscape="http://www.inkscape.org/namespaces/inkscape"
   version="1.1"
   x="0px"
   y="0px"
   viewBox="0 0 24.6 24.6"
   xml:space="preserve"
   id="svg2"
   inkscape:version="0.91 r13725"
   sodipodi:docname="fac.svg"
   width="24.6"
   height="24.6"><metadata
     id="metadata546"><rdf:RDF><cc:Work
         rdf:about=""><dc:format>image/svg+xml</dc:format><dc:type
           rdf:resource="http://purl.org/dc/dcmitype/StillImage" /><dc:title></dc:title></cc:Work></rdf:RDF></metadata><defs
     id="defs544" /><sodipodi:namedview
     pagecolor="#ffffff"
     bordercolor="#666666"
     borderopacity="1"
     objecttolerance="10"
     gridtolerance="10"
     guidetolerance="10"
     inkscape:pageopacity="0"
     inkscape:pageshadow="2"
     inkscape:window-width="462"
     inkscape:window-height="414"
     id="namedview542"
     showgrid="false"
     fit-margin-top="0"
     fit-margin-left="0"
     fit-margin-right="0"
     fit-margin-bottom="0"
     inkscape:zoom="3.4705882"
     inkscape:cx="35.050847"
     inkscape:cy="25.125399"
     inkscape:window-x="0"
     inkscape:window-y="25"
     inkscape:window-maximized="0"
     inkscape:current-layer="svg2" /><style
     type="text/css"
     id="style4">
	.st0{clip-path:url(#SVGID_2_);}
	.st1{clip-path:url(#SVGID_4_);fill:#F9F7F7;}
	.st2{clip-path:url(#SVGID_6_);}
	.st3{clip-path:url(#SVGID_8_);fill:#F9F7F7;}
	.st4{opacity:0.462;enable-background:new    ;}
	.st5{clip-path:url(#SVGID_10_);}
	.st6{clip-path:url(#SVGID_12_);}
	.st7{clip-path:url(#SVGID_14_);enable-background:new    ;}
	.st8{clip-path:url(#SVGID_16_);}
	.st9{clip-path:url(#SVGID_18_);}
	.st10{opacity:0.78;clip-path:url(#SVGID_20_);fill:#7E7F87;}
	.st11{clip-path:url(#SVGID_22_);}
	.st12{clip-path:url(#SVGID_24_);fill:#F9F7F7;}
	.st13{clip-path:url(#SVGID_26_);}
	.st14{clip-path:url(#SVGID_28_);}
	.st15{clip-path:url(#SVGID_30_);enable-background:new    ;}
	.st16{clip-path:url(#SVGID_32_);}
	.st17{clip-path:url(#SVGID_34_);}
	.st18{opacity:0.78;clip-path:url(#SVGID_36_);fill:#7E7F87;}
	.st19{clip-path:url(#SVGID_38_);}
	.st20{clip-path:url(#SVGID_40_);fill:#F9F7F7;}
	.st21{clip-path:url(#SVGID_42_);}
	.st22{clip-path:url(#SVGID_44_);}
	.st23{clip-path:url(#SVGID_46_);enable-background:new    ;}
	.st24{clip-path:url(#SVGID_48_);}
	.st25{clip-path:url(#SVGID_50_);}
	.st26{opacity:0.78;clip-path:url(#SVGID_52_);fill:#7E7F87;}
	.st27{clip-path:url(#SVGID_54_);}
	.st28{clip-path:url(#SVGID_56_);fill:#F9F7F7;}
	.st29{clip-path:url(#SVGID_58_);}
	.st30{clip-path:url(#SVGID_60_);}
	.st31{clip-path:url(#SVGID_62_);enable-background:new    ;}
	.st32{clip-path:url(#SVGID_64_);}
	.st33{clip-path:url(#SVGID_66_);}
	.st34{opacity:0.78;clip-path:url(#SVGID_68_);fill:#7E7F87;}
	.st35{clip-path:url(#SVGID_70_);}
	.st36{clip-path:url(#SVGID_72_);fill:#F9F7F7;}
	.st37{clip-path:url(#SVGID_74_);}
	.st38{clip-path:url(#SVGID_76_);}
	.st39{clip-path:url(#SVGID_78_);enable-background:new    ;}
	.st40{clip-path:url(#SVGID_80_);}
	.st41{clip-path:url(#SVGID_82_);}
	.st42{opacity:0.78;clip-path:url(#SVGID_84_);fill:#7E7F87;}
	.st43{clip-path:url(#SVGID_86_);}
	.st44{clip-path:url(#SVGID_88_);fill:#F9F7F7;}
	.st45{clip-path:url(#SVGID_90_);}
	.st46{clip-path:url(#SVGID_92_);}
	.st47{clip-path:url(#SVGID_94_);enable-background:new    ;}
	.st48{clip-path:url(#SVGID_96_);}
	.st49{clip-path:url(#SVGID_98_);}
	.st50{opacity:0.78;clip-path:url(#SVGID_100_);fill:#7E7F87;}
	.st51{clip-path:url(#SVGID_102_);}
	.st52{clip-path:url(#SVGID_104_);fill:#F9F7F7;}
	.st53{opacity:0.3828;enable-background:new    ;}
	.st54{clip-path:url(#SVGID_106_);}
	.st55{clip-path:url(#SVGID_108_);}
	.st56{clip-path:url(#SVGID_110_);enable-background:new    ;}
	.st57{clip-path:url(#SVGID_112_);}
	.st58{clip-path:url(#SVGID_114_);}
	.st59{clip-path:url(#SVGID_116_);fill:#7E7F87;}
</style><g
     id="Layer_1"
     transform="translate(-21,-23)"><g
       id="g7"><defs
         id="defs9"><path
           id="SVGID_1_"
           d="m 461.6,-520.8 0,-7.5 c 0,-0.3 -0.2,-0.6 -0.4,-0.7 -0.3,-0.1 -0.6,-0.1 -0.8,0.1 l -3.4,3.1 c 0,0 -0.1,0.1 -0.1,0.1 l -0.1,0 -3.3,-3.3 c -0.1,-0.1 -0.3,-0.1 -0.4,0 -0.1,0.1 -0.1,0.3 0,0.4 l 2.9,2.9 -2.3,0 c -0.4,0 -0.7,0.3 -0.7,0.7 l 0,3.7 c 0,0.4 0.3,0.7 0.7,0.7 l 3.1,0 c 0.1,0 0.1,0 0.1,0.1 l 3.4,3.1 c 0.1,0.1 0.3,0.2 0.5,0.2 0.1,0 0.2,0 0.3,-0.1 0.3,-0.1 0.4,-0.4 0.4,-0.7 l 0,-2.2 2.9,2.9 c 0.1,0.1 0.1,0.1 0.2,0.1 0.1,0 0.1,0 0.2,-0.1 0.1,-0.1 0.1,-0.3 0,-0.4 l -3.2,-3.1 z m -0.8,-7.6 c 0.1,-0.1 0.2,-0.1 0.2,0 0,0 0.1,0.1 0.1,0.2 l 0,7 -3.9,-3.9 c 0.1,0 0.1,-0.1 0.2,-0.1 l 3.4,-3.2 z m 0.3,10.7 c 0,0.1 -0.1,0.2 -0.1,0.2 0,0 -0.1,0 -0.2,0 l -3.4,-3.1 c -0.1,-0.1 -0.3,-0.2 -0.5,-0.2 l -3.1,0 c -0.1,0 -0.2,-0.1 -0.2,-0.2 l 0,-3.7 c 0,-0.1 0.1,-0.2 0.2,-0.2 l 2.8,0 4.5,4.5 0,2.7 z"
           inkscape:connector-curvature="0" /></defs><clipPath
         id="SVGID_2_"><use
           xlink:href="#SVGID_1_"
           style="overflow:visible"
           id="use13"
           x="0"
           y="0"
           width="100%"
           height="100%" /></clipPath><g
         class="st0"
         id="g15"
         clip-path="url(#SVGID_2_)"><defs
           id="defs17"><rect
             id="SVGID_3_"
             x="-479"
             y="-1290"
             width="1024"
             height="2648" /></defs><clipPath
           id="SVGID_4_"><use
             xlink:href="#SVGID_3_"
             style="overflow:visible"
             id="use21"
             x="0"
             y="0"
             width="100%"
             height="100%" /></clipPath><rect
           x="448"
           y="-534"
           class="st1"
           width="22"
           height="22"
           id="rect23"
           clip-path="url(#SVGID_4_)"
           style="fill:#f9f7f7" /></g></g><g
       id="g25"><defs
         id="defs27"><path
           id="SVGID_5_"
           d="m 461.6,-520.8 0,-7.5 c 0,-0.3 -0.2,-0.6 -0.4,-0.7 -0.3,-0.1 -0.6,-0.1 -0.8,0.1 l -3.4,3.1 c 0,0 -0.1,0.1 -0.1,0.1 l -0.1,0 -3.3,-3.3 c -0.1,-0.1 -0.3,-0.1 -0.4,0 -0.1,0.1 -0.1,0.3 0,0.4 l 2.9,2.9 -2.3,0 c -0.4,0 -0.7,0.3 -0.7,0.7 l 0,3.7 c 0,0.4 0.3,0.7 0.7,0.7 l 3.1,0 c 0.1,0 0.1,0 0.1,0.1 l 3.4,3.1 c 0.1,0.1 0.3,0.2 0.5,0.2 0.1,0 0.2,0 0.3,-0.1 0.3,-0.1 0.4,-0.4 0.4,-0.7 l 0,-2.2 2.9,2.9 c 0.1,0.1 0.1,0.1 0.2,0.1 0.1,0 0.1,0 0.2,-0.1 0.1,-0.1 0.1,-0.3 0,-0.4 l -3.2,-3.1 z m -0.8,-7.6 c 0.1,-0.1 0.2,-0.1 0.2,0 0,0 0.1,0.1 0.1,0.2 l 0,7 -3.9,-3.9 c 0.1,0 0.1,-0.1 0.2,-0.1 l 3.4,-3.2 z m 0.3,10.7 c 0,0.1 -0.1,0.2 -0.1,0.2 0,0 -0.1,0 -0.2,0 l -3.4,-3.1 c -0.1,-0.1 -0.3,-0.2 -0.5,-0.2 l -3.1,0 c -0.1,0 -0.2,-0.1 -0.2,-0.2 l 0,-3.7 c 0,-0.1 0.1,-0.2 0.2,-0.2 l 2.8,0 4.5,4.5 0,2.7 z"
           inkscape:connector-curvature="0" /></defs><clipPath
         id="SVGID_6_"><use
           xlink:href="#SVGID_5_"
           style="overflow:visible"
           id="use31"
           x="0"
           y="0"
           width="100%"
           height="100%" /></clipPath><g
         class="st2"
         id="g33"
         clip-path="url(#SVGID_6_)"><defs
           id="defs35"><rect
             id="SVGID_7_"
             x="-479"
             y="-1290"
             width="1024"
             height="2648" /></defs><clipPath
           id="SVGID_8_"><use
             xlink:href="#SVGID_7_"
             style="overflow:visible"
             id="use39"
             x="0"
             y="0"
             width="100%"
             height="100%" /></clipPath><rect
           x="448"
           y="-534"
           class="st3"
           width="22"
           height="22"
           id="rect41"
           clip-path="url(#SVGID_8_)"
           style="fill:#f9f7f7" /></g></g><g
       id="g43"><g
         class="st4"
         id="g45"
         style="opacity:0.46200005;enable-background:new"><g
           id="g47"><defs
             id="defs49"><rect
               id="SVGID_9_"
               x="446"
               y="-535"
               width="24"
               height="24" /></defs><clipPath
             id="SVGID_10_"><use
               xlink:href="#SVGID_9_"
               style="overflow:visible"
               id="use53"
               x="0"
               y="0"
               width="100%"
               height="100%" /></clipPath><g
             class="st5"
             id="g55"
             clip-path="url(#SVGID_10_)"><defs
               id="defs57"><rect
                 id="SVGID_11_"
                 x="446"
                 y="-534.90002"
                 width="23.9"
                 height="23.9" /></defs><clipPath
               id="SVGID_12_"><use
                 xlink:href="#SVGID_11_"
                 style="overflow:visible"
                 id="use61"
                 x="0"
                 y="0"
                 width="100%"
                 height="100%" /></clipPath><g
               class="st6"
               id="g63"
               clip-path="url(#SVGID_12_)"><defs
                 id="defs65"><rect
                   id="SVGID_13_"
                   x="446"
                   y="-535"
                   width="24"
                   height="24" /></defs><clipPath
                 id="SVGID_14_"><use
                   xlink:href="#SVGID_13_"
                   style="overflow:visible"
                   id="use69"
                   x="0"
                   y="0"
                   width="100%"
                   height="100%" /></clipPath><g
                 class="st7"
                 id="g71"
                 clip-path="url(#SVGID_14_)"
                 style="enable-background:new"><g
                   id="g73"><defs
                     id="defs75"><rect
                       id="SVGID_15_"
                       x="446"
                       y="-535"
                       width="24"
                       height="24" /></defs><clipPath
                     id="SVGID_16_"><use
                       xlink:href="#SVGID_15_"
                       style="overflow:visible"
                       id="use79"
                       x="0"
                       y="0"
                       width="100%"
                       height="100%" /></clipPath><g
                     class="st8"
                     id="g81"
                     clip-path="url(#SVGID_16_)"><defs
                       id="defs83"><path
                         id="SVGID_17_"
                         d="m 446,-530.6 0,15.3 c 0,2.4 1.9,4.3 4.3,4.3 l 15.3,0 c 2.4,0 4.3,-1.9 4.3,-4.3 l 0,-15.3 c 0,-2.4 -1.9,-4.3 -4.3,-4.3 l -15.3,0 c -2.4,0 -4.3,1.9 -4.3,4.3"
                         inkscape:connector-curvature="0" /></defs><clipPath
                       id="SVGID_18_"><use
                         xlink:href="#SVGID_17_"
                         style="overflow:visible"
                         id="use87"
                         x="0"
                         y="0"
                         width="100%"
                         height="100%" /></clipPath><g
                       class="st9"
                       id="g89"
                       clip-path="url(#SVGID_18_)"><defs
                         id="defs91"><rect
                           id="SVGID_19_"
                           x="446"
                           y="-535"
                           width="24"
                           height="24" /></defs><clipPath
                         id="SVGID_20_"><use
                           xlink:href="#SVGID_19_"
                           style="overflow:visible"
                           id="use95"
                           x="0"
                           y="0"
                           width="100%"
                           height="100%" /></clipPath><rect
                         x="441"
                         y="-539.90002"
                         class="st10"
                         width="33.900002"
                         height="33.900002"
                         id="rect97"
                         clip-path="url(#SVGID_20_)"
                         style="opacity:0.77999998;fill:#7e7f87" /></g></g></g></g></g></g></g></g></g><g
       id="g99"><defs
         id="defs101"><path
           id="SVGID_21_"
           d="m 461.6,-520.8 0,-7.5 c 0,-0.3 -0.2,-0.6 -0.4,-0.7 -0.3,-0.1 -0.6,-0.1 -0.8,0.1 l -3.4,3.1 c 0,0 -0.1,0.1 -0.1,0.1 l -0.1,0 -3.3,-3.3 c -0.1,-0.1 -0.3,-0.1 -0.4,0 -0.1,0.1 -0.1,0.3 0,0.4 l 2.9,2.9 -2.3,0 c -0.4,0 -0.7,0.3 -0.7,0.7 l 0,3.7 c 0,0.4 0.3,0.7 0.7,0.7 l 3.1,0 c 0.1,0 0.1,0 0.1,0.1 l 3.4,3.1 c 0.1,0.1 0.3,0.2 0.5,0.2 0.1,0 0.2,0 0.3,-0.1 0.3,-0.1 0.4,-0.4 0.4,-0.7 l 0,-2.2 2.9,2.9 c 0.1,0.1 0.1,0.1 0.2,0.1 0.1,0 0.1,0 0.2,-0.1 0.1,-0.1 0.1,-0.3 0,-0.4 l -3.2,-3.1 z m -0.8,-7.6 c 0.1,-0.1 0.2,-0.1 0.2,0 0,0 0.1,0.1 0.1,0.2 l 0,7 -3.9,-3.9 c 0.1,0 0.1,-0.1 0.2,-0.1 l 3.4,-3.2 z m 0.3,10.7 c 0,0.1 -0.1,0.2 -0.1,0.2 0,0 -0.1,0 -0.2,0 l -3.4,-3.1 c -0.1,-0.1 -0.3,-0.2 -0.5,-0.2 l -3.1,0 c -0.1,0 -0.2,-0.1 -0.2,-0.2 l 0,-3.7 c 0,-0.1 0.1,-0.2 0.2,-0.2 l 2.8,0 4.5,4.5 0,2.7 z"
           inkscape:connector-curvature="0" /></defs><clipPath
         id="SVGID_22_"><use
           xlink:href="#SVGID_21_"
           style="overflow:visible"
           id="use105"
           x="0"
           y="0"
           width="100%"
           height="100%" /></clipPath><g
         class="st11"
         id="g107"
         clip-path="url(#SVGID_22_)"><defs
           id="defs109"><rect
             id="SVGID_23_"
             x="-479"
             y="-1290"
             width="1024"
             height="2648" /></defs><clipPath
           id="SVGID_24_"><use
             xlink:href="#SVGID_23_"
             style="overflow:visible"
             id="use113"
             x="0"
             y="0"
             width="100%"
             height="100%" /></clipPath><rect
           x="448"
           y="-534"
           class="st12"
           width="22"
           height="22"
           id="rect115"
           clip-path="url(#SVGID_24_)"
           style="fill:#f9f7f7" /></g></g><g
       id="g117"><g
         class="st4"
         id="g119"
         style="opacity:0.46200005;enable-background:new"><g
           id="g121"><defs
             id="defs123"><rect
               id="SVGID_25_"
               x="713"
               y="331"
               width="24"
               height="24" /></defs><clipPath
             id="SVGID_26_"><use
               xlink:href="#SVGID_25_"
               style="overflow:visible"
               id="use127"
               x="0"
               y="0"
               width="100%"
               height="100%" /></clipPath><g
             class="st13"
             id="g129"
             clip-path="url(#SVGID_26_)"><defs
               id="defs131"><rect
                 id="SVGID_27_"
                 x="713"
                 y="331.10001"
                 width="23.9"
                 height="23.9" /></defs><clipPath
               id="SVGID_28_"><use
                 xlink:href="#SVGID_27_"
                 style="overflow:visible"
                 id="use135"
                 x="0"
                 y="0"
                 width="100%"
                 height="100%" /></clipPath><g
               class="st14"
               id="g137"
               clip-path="url(#SVGID_28_)"><defs
                 id="defs139"><rect
                   id="SVGID_29_"
                   x="713"
                   y="331"
                   width="24"
                   height="24" /></defs><clipPath
                 id="SVGID_30_"><use
                   xlink:href="#SVGID_29_"
                   style="overflow:visible"
                   id="use143"
                   x="0"
                   y="0"
                   width="100%"
                   height="100%" /></clipPath><g
                 class="st15"
                 id="g145"
                 clip-path="url(#SVGID_30_)"
                 style="enable-background:new"><g
                   id="g147"><defs
                     id="defs149"><rect
                       id="SVGID_31_"
                       x="713"
                       y="331"
                       width="24"
                       height="24" /></defs><clipPath
                     id="SVGID_32_"><use
                       xlink:href="#SVGID_31_"
                       style="overflow:visible"
                       id="use153"
                       x="0"
                       y="0"
                       width="100%"
                       height="100%" /></clipPath><g
                     class="st16"
                     id="g155"
                     clip-path="url(#SVGID_32_)"><defs
                       id="defs157"><path
                         id="SVGID_33_"
                         d="m 713,335.4 0,15.3 c 0,2.4 1.9,4.3 4.3,4.3 l 15.3,0 c 2.4,0 4.3,-1.9 4.3,-4.3 l 0,-15.3 c 0,-2.4 -1.9,-4.3 -4.3,-4.3 l -15.3,0 c -2.4,0 -4.3,1.9 -4.3,4.3"
                         inkscape:connector-curvature="0" /></defs><clipPath
                       id="SVGID_34_"><use
                         xlink:href="#SVGID_33_"
                         style="overflow:visible"
                         id="use161"
                         x="0"
                         y="0"
                         width="100%"
                         height="100%" /></clipPath><g
                       class="st17"
                       id="g163"
                       clip-path="url(#SVGID_34_)"><defs
                         id="defs165"><rect
                           id="SVGID_35_"
                           x="713"
                           y="331"
                           width="24"
                           height="24" /></defs><clipPath
                         id="SVGID_36_"><use
                           xlink:href="#SVGID_35_"
                           style="overflow:visible"
                           id="use169"
                           x="0"
                           y="0"
                           width="100%"
                           height="100%" /></clipPath><rect
                         x="708"
                         y="326.10001"
                         class="st18"
                         width="33.900002"
                         height="33.900002"
                         id="rect171"
                         clip-path="url(#SVGID_36_)"
                         style="opacity:0.77999998;fill:#7e7f87" /></g></g></g></g></g></g></g></g></g><g
       id="g173"><defs
         id="defs175"><path
           id="SVGID_37_"
           d="m 728.6,345.2 0,-7.5 c 0,-0.3 -0.2,-0.6 -0.4,-0.7 -0.3,-0.1 -0.6,-0.1 -0.8,0.1 l -3.4,3.1 c 0,0 -0.1,0.1 -0.1,0.1 l -0.1,0 -3.3,-3.3 c -0.1,-0.1 -0.3,-0.1 -0.4,0 -0.1,0.1 -0.1,0.3 0,0.4 l 2.9,2.9 -2.3,0 c -0.4,0 -0.7,0.3 -0.7,0.7 l 0,3.7 c 0,0.4 0.3,0.7 0.7,0.7 l 3.1,0 c 0.1,0 0.1,0 0.1,0.1 l 3.4,3.1 c 0.1,0.1 0.3,0.2 0.5,0.2 0.1,0 0.2,0 0.3,-0.1 0.3,-0.1 0.4,-0.4 0.4,-0.7 l 0,-2 2.9,2.9 c 0.1,0.1 0.1,0.1 0.2,0.1 0.1,0 0.1,0 0.2,-0.1 0.1,-0.1 0.1,-0.3 0,-0.4 l -3.2,-3.3 z m -0.8,-7.6 c 0.1,-0.1 0.2,-0.1 0.2,0 0,0 0.1,0.1 0.1,0.2 l 0,7 -3.9,-3.9 c 0.1,0 0.1,-0.1 0.2,-0.1 l 3.4,-3.2 z m 0.3,10.7 c 0,0.1 -0.1,0.2 -0.1,0.2 0,0 -0.1,0 -0.2,0 l -3.4,-3.1 c -0.1,-0.1 -0.3,-0.2 -0.5,-0.2 l -3.1,0 c -0.1,0 -0.2,-0.1 -0.2,-0.2 l 0,-3.7 c 0,-0.1 0.1,-0.2 0.2,-0.2 l 2.8,0 4.5,4.5 0,2.7 z"
           inkscape:connector-curvature="0" /></defs><clipPath
         id="SVGID_38_"><use
           xlink:href="#SVGID_37_"
           style="overflow:visible"
           id="use179"
           x="0"
           y="0"
           width="100%"
           height="100%" /></clipPath><g
         class="st19"
         id="g181"
         clip-path="url(#SVGID_38_)"><defs
           id="defs183"><rect
             id="SVGID_39_"
             x="-212"
             y="-424"
             width="1024"
             height="2648" /></defs><clipPath
           id="SVGID_40_"><use
             xlink:href="#SVGID_39_"
             style="overflow:visible"
             id="use187"
             x="0"
             y="0"
             width="100%"
             height="100%" /></clipPath><rect
           x="715"
           y="332"
           class="st20"
           width="22"
           height="22"
           id="rect189"
           clip-path="url(#SVGID_40_)"
           style="fill:#f9f7f7" /></g></g><g
       id="g191"><g
         class="st4"
         id="g193"
         style="opacity:0.46200005;enable-background:new"><g
           id="g195"><defs
             id="defs197"><rect
               id="SVGID_41_"
               x="446"
               y="-534"
               width="24"
               height="24" /></defs><clipPath
             id="SVGID_42_"><use
               xlink:href="#SVGID_41_"
               style="overflow:visible"
               id="use201"
               x="0"
               y="0"
               width="100%"
               height="100%" /></clipPath><g
             class="st21"
             id="g203"
             clip-path="url(#SVGID_42_)"><defs
               id="defs205"><rect
                 id="SVGID_43_"
                 x="446"
                 y="-533.90002"
                 width="23.9"
                 height="23.9" /></defs><clipPath
               id="SVGID_44_"><use
                 xlink:href="#SVGID_43_"
                 style="overflow:visible"
                 id="use209"
                 x="0"
                 y="0"
                 width="100%"
                 height="100%" /></clipPath><g
               class="st22"
               id="g211"
               clip-path="url(#SVGID_44_)"><defs
                 id="defs213"><rect
                   id="SVGID_45_"
                   x="446"
                   y="-534"
                   width="24"
                   height="24" /></defs><clipPath
                 id="SVGID_46_"><use
                   xlink:href="#SVGID_45_"
                   style="overflow:visible"
                   id="use217"
                   x="0"
                   y="0"
                   width="100%"
                   height="100%" /></clipPath><g
                 class="st23"
                 id="g219"
                 clip-path="url(#SVGID_46_)"
                 style="enable-background:new"><g
                   id="g221"><defs
                     id="defs223"><rect
                       id="SVGID_47_"
                       x="446"
                       y="-534"
                       width="24"
                       height="24" /></defs><clipPath
                     id="SVGID_48_"><use
                       xlink:href="#SVGID_47_"
                       style="overflow:visible"
                       id="use227"
                       x="0"
                       y="0"
                       width="100%"
                       height="100%" /></clipPath><g
                     class="st24"
                     id="g229"
                     clip-path="url(#SVGID_48_)"><defs
                       id="defs231"><path
                         id="SVGID_49_"
                         d="m 446,-529.6 0,15.3 c 0,2.4 1.9,4.3 4.3,4.3 l 15.3,0 c 2.4,0 4.3,-1.9 4.3,-4.3 l 0,-15.3 c 0,-2.4 -1.9,-4.3 -4.3,-4.3 l -15.3,0 c -2.4,0 -4.3,1.9 -4.3,4.3"
                         inkscape:connector-curvature="0" /></defs><clipPath
                       id="SVGID_50_"><use
                         xlink:href="#SVGID_49_"
                         style="overflow:visible"
                         id="use235"
                         x="0"
                         y="0"
                         width="100%"
                         height="100%" /></clipPath><g
                       class="st25"
                       id="g237"
                       clip-path="url(#SVGID_50_)"><defs
                         id="defs239"><rect
                           id="SVGID_51_"
                           x="446"
                           y="-534"
                           width="24"
                           height="24" /></defs><clipPath
                         id="SVGID_52_"><use
                           xlink:href="#SVGID_51_"
                           style="overflow:visible"
                           id="use243"
                           x="0"
                           y="0"
                           width="100%"
                           height="100%" /></clipPath><rect
                         x="441"
                         y="-538.90002"
                         class="st26"
                         width="33.900002"
                         height="33.900002"
                         id="rect245"
                         clip-path="url(#SVGID_52_)"
                         style="opacity:0.77999998;fill:#7e7f87" /></g></g></g></g></g></g></g></g></g><g
       id="g247"><defs
         id="defs249"><path
           id="SVGID_53_"
           d="m 461.6,-519.8 0,-7.5 c 0,-0.3 -0.2,-0.6 -0.4,-0.7 -0.3,-0.1 -0.6,-0.1 -0.8,0.1 l -3.4,3.1 c 0,0 -0.1,0.1 -0.1,0.1 l -0.1,0 -3.3,-3.3 c -0.1,-0.1 -0.3,-0.1 -0.4,0 -0.1,0.1 -0.1,0.3 0,0.4 l 2.9,2.9 -2.3,0 c -0.4,0 -0.7,0.3 -0.7,0.7 l 0,3.7 c 0,0.4 0.3,0.7 0.7,0.7 l 3.1,0 c 0.1,0 0.1,0 0.1,0.1 l 3.4,3.1 c 0.1,0.1 0.3,0.2 0.5,0.2 0.1,0 0.2,0 0.3,-0.1 0.3,-0.1 0.4,-0.4 0.4,-0.7 l 0,-2.2 2.9,2.9 c 0.1,0.1 0.1,0.1 0.2,0.1 0.1,0 0.1,0 0.2,-0.1 0.1,-0.1 0.1,-0.3 0,-0.4 l -3.2,-3.1 z m -0.8,-7.6 c 0.1,-0.1 0.2,-0.1 0.2,0 0,0 0.1,0.1 0.1,0.2 l 0,7 -3.9,-3.9 c 0.1,0 0.1,-0.1 0.2,-0.1 l 3.4,-3.2 z m 0.3,10.7 c 0,0.1 -0.1,0.2 -0.1,0.2 0,0 -0.1,0 -0.2,0 l -3.4,-3.1 c -0.1,-0.1 -0.3,-0.2 -0.5,-0.2 l -3.1,0 c -0.1,0 -0.2,-0.1 -0.2,-0.2 l 0,-3.7 c 0,-0.1 0.1,-0.2 0.2,-0.2 l 2.8,0 4.5,4.5 0,2.7 z"
           inkscape:connector-curvature="0" /></defs><clipPath
         id="SVGID_54_"><use
           xlink:href="#SVGID_53_"
           style="overflow:visible"
           id="use253"
           x="0"
           y="0"
           width="100%"
           height="100%" /></clipPath><g
         class="st27"
         id="g255"
         clip-path="url(#SVGID_54_)"><defs
           id="defs257"><rect
             id="SVGID_55_"
             x="-479"
             y="-1289"
             width="1024"
             height="2648" /></defs><clipPath
           id="SVGID_56_"><use
             xlink:href="#SVGID_55_"
             style="overflow:visible"
             id="use261"
             x="0"
             y="0"
             width="100%"
             height="100%" /></clipPath><rect
           x="448"
           y="-533"
           class="st28"
           width="22"
           height="22"
           id="rect263"
           clip-path="url(#SVGID_56_)"
           style="fill:#f9f7f7" /></g></g></g><g
     id="g266"
     transform="translate(-21,-23)"><g
       id="g268"
       class="st4"
       style="opacity:0.46200005;enable-background:new"><g
         id="g270"><defs
           id="defs272"><rect
             height="24"
             width="24"
             y="331"
             x="713"
             id="SVGID_57_" /></defs><clipPath
           id="SVGID_58_"><use
             id="use276"
             style="overflow:visible"
             xlink:href="#SVGID_57_"
             x="0"
             y="0"
             width="100%"
             height="100%" /></clipPath><g
           clip-path="url(#SVGID_58_)"
           id="g278"
           class="st29"><defs
             id="defs280"><rect
               height="23.9"
               width="23.9"
               y="331.10001"
               x="713"
               id="SVGID_59_" /></defs><clipPath
             id="SVGID_60_"><use
               id="use284"
               style="overflow:visible"
               xlink:href="#SVGID_59_"
               x="0"
               y="0"
               width="100%"
               height="100%" /></clipPath><g
             clip-path="url(#SVGID_60_)"
             id="g286"
             class="st30"><defs
               id="defs288"><rect
                 height="24"
                 width="24"
                 y="331"
                 x="713"
                 id="SVGID_61_" /></defs><clipPath
               id="SVGID_62_"><use
                 id="use292"
                 style="overflow:visible"
                 xlink:href="#SVGID_61_"
                 x="0"
                 y="0"
                 width="100%"
                 height="100%" /></clipPath><g
               clip-path="url(#SVGID_62_)"
               id="g294"
               class="st31"
               style="enable-background:new"><g
                 id="g296"><defs
                   id="defs298"><rect
                     height="24"
                     width="24"
                     y="331"
                     x="713"
                     id="SVGID_63_" /></defs><clipPath
                   id="SVGID_64_"><use
                     id="use302"
                     style="overflow:visible"
                     xlink:href="#SVGID_63_"
                     x="0"
                     y="0"
                     width="100%"
                     height="100%" /></clipPath><g
                   clip-path="url(#SVGID_64_)"
                   id="g304"
                   class="st32"><defs
                     id="defs306"><path
                       d="m 713,335.4 0,15.3 c 0,2.4 1.9,4.3 4.3,4.3 l 15.3,0 c 2.4,0 4.3,-1.9 4.3,-4.3 l 0,-15.3 c 0,-2.4 -1.9,-4.3 -4.3,-4.3 l -15.3,0 c -2.4,0 -4.3,1.9 -4.3,4.3"
                       id="SVGID_65_"
                       inkscape:connector-curvature="0" /></defs><clipPath
                     id="SVGID_66_"><use
                       id="use310"
                       style="overflow:visible"
                       xlink:href="#SVGID_65_"
                       x="0"
                       y="0"
                       width="100%"
                       height="100%" /></clipPath><g
                     clip-path="url(#SVGID_66_)"
                     id="g312"
                     class="st33"><defs
                       id="defs314"><rect
                         height="24"
                         width="24"
                         y="331"
                         x="713"
                         id="SVGID_67_" /></defs><clipPath
                       id="SVGID_68_"><use
                         id="use318"
                         style="overflow:visible"
                         xlink:href="#SVGID_67_"
                         x="0"
                         y="0"
                         width="100%"
                         height="100%" /></clipPath><rect
                       clip-path="url(#SVGID_68_)"
                       id="rect320"
                       height="33.900002"
                       width="33.900002"
                       class="st34"
                       y="326.10001"
                       x="708"
                       style="opacity:0.77999998;fill:#7e7f87" /></g></g></g></g></g></g></g></g></g><g
     id="g322"
     transform="translate(-21,-23)"><defs
       id="defs324"><path
         d="m 728.6,345.2 0,-7.5 c 0,-0.3 -0.2,-0.6 -0.4,-0.7 -0.3,-0.1 -0.6,-0.1 -0.8,0.1 l -3.4,3.1 c 0,0 -0.1,0.1 -0.1,0.1 l -0.1,0 -3.3,-3.3 c -0.1,-0.1 -0.3,-0.1 -0.4,0 -0.1,0.1 -0.1,0.3 0,0.4 l 2.9,2.9 -2.3,0 c -0.4,0 -0.7,0.3 -0.7,0.7 l 0,3.7 c 0,0.4 0.3,0.7 0.7,0.7 l 3.1,0 c 0.1,0 0.1,0 0.1,0.1 l 3.4,3.1 c 0.1,0.1 0.3,0.2 0.5,0.2 0.1,0 0.2,0 0.3,-0.1 0.3,-0.1 0.4,-0.4 0.4,-0.7 l 0,-2 2.9,2.9 c 0.1,0.1 0.1,0.1 0.2,0.1 0.1,0 0.1,0 0.2,-0.1 0.1,-0.1 0.1,-0.3 0,-0.4 l -3.2,-3.3 z m -0.8,-7.6 c 0.1,-0.1 0.2,-0.1 0.2,0 0,0 0.1,0.1 0.1,0.2 l 0,7 -3.9,-3.9 c 0.1,0 0.1,-0.1 0.2,-0.1 l 3.4,-3.2 z m 0.3,10.7 c 0,0.1 -0.1,0.2 -0.1,0.2 0,0 -0.1,0 -0.2,0 l -3.4,-3.1 c -0.1,-0.1 -0.3,-0.2 -0.5,-0.2 l -3.1,0 c -0.1,0 -0.2,-0.1 -0.2,-0.2 l 0,-3.7 c 0,-0.1 0.1,-0.2 0.2,-0.2 l 2.8,0 4.5,4.5 0,2.7 z"
         id="SVGID_69_"
         inkscape:connector-curvature="0" /></defs><clipPath
       id="SVGID_70_"><use
         id="use328"
         style="overflow:visible"
         xlink:href="#SVGID_69_"
         x="0"
         y="0"
         width="100%"
         height="100%" /></clipPath><g
       clip-path="url(#SVGID_70_)"
       id="g330"
       class="st35"><defs
         id="defs332"><rect
           height="2648"
           width="1024"
           y="-424"
           x="-212"
           id="SVGID_71_" /></defs><clipPath
         id="SVGID_72_"><use
           id="use336"
           style="overflow:visible"
           xlink:href="#SVGID_71_"
           x="0"
           y="0"
           width="100%"
           height="100%" /></clipPath><rect
         clip-path="url(#SVGID_72_)"
         id="rect338"
         height="22"
         width="22"
         class="st36"
         y="332"
         x="715"
         style="fill:#f9f7f7" /></g></g><g
     id="g340"
     transform="translate(-21,-23)"><g
       id="g342"
       class="st4"
       style="opacity:0.46200005;enable-background:new"><g
         id="g344"><defs
           id="defs346"><rect
             height="24"
             width="24"
             y="-534"
             x="446"
             id="SVGID_73_" /></defs><clipPath
           id="SVGID_74_"><use
             id="use350"
             style="overflow:visible"
             xlink:href="#SVGID_73_"
             x="0"
             y="0"
             width="100%"
             height="100%" /></clipPath><g
           clip-path="url(#SVGID_74_)"
           id="g352"
           class="st37"><defs
             id="defs354"><rect
               height="23.9"
               width="23.9"
               y="-533.90002"
               x="446"
               id="SVGID_75_" /></defs><clipPath
             id="SVGID_76_"><use
               id="use358"
               style="overflow:visible"
               xlink:href="#SVGID_75_"
               x="0"
               y="0"
               width="100%"
               height="100%" /></clipPath><g
             clip-path="url(#SVGID_76_)"
             id="g360"
             class="st38"><defs
               id="defs362"><rect
                 height="24"
                 width="24"
                 y="-534"
                 x="446"
                 id="SVGID_77_" /></defs><clipPath
               id="SVGID_78_"><use
                 id="use366"
                 style="overflow:visible"
                 xlink:href="#SVGID_77_"
                 x="0"
                 y="0"
                 width="100%"
                 height="100%" /></clipPath><g
               clip-path="url(#SVGID_78_)"
               id="g368"
               class="st39"
               style="enable-background:new"><g
                 id="g370"><defs
                   id="defs372"><rect
                     height="24"
                     width="24"
                     y="-534"
                     x="446"
                     id="SVGID_79_" /></defs><clipPath
                   id="SVGID_80_"><use
                     id="use376"
                     style="overflow:visible"
                     xlink:href="#SVGID_79_"
                     x="0"
                     y="0"
                     width="100%"
                     height="100%" /></clipPath><g
                   clip-path="url(#SVGID_80_)"
                   id="g378"
                   class="st40"><defs
                     id="defs380"><path
                       d="m 446,-529.6 0,15.3 c 0,2.4 1.9,4.3 4.3,4.3 l 15.3,0 c 2.4,0 4.3,-1.9 4.3,-4.3 l 0,-15.3 c 0,-2.4 -1.9,-4.3 -4.3,-4.3 l -15.3,0 c -2.4,0 -4.3,1.9 -4.3,4.3"
                       id="SVGID_81_"
                       inkscape:connector-curvature="0" /></defs><clipPath
                     id="SVGID_82_"><use
                       id="use384"
                       style="overflow:visible"
                       xlink:href="#SVGID_81_"
                       x="0"
                       y="0"
                       width="100%"
                       height="100%" /></clipPath><g
                     clip-path="url(#SVGID_82_)"
                     id="g386"
                     class="st41"><defs
                       id="defs388"><rect
                         height="24"
                         width="24"
                         y="-534"
                         x="446"
                         id="SVGID_83_" /></defs><clipPath
                       id="SVGID_84_"><use
                         id="use392"
                         style="overflow:visible"
                         xlink:href="#SVGID_83_"
                         x="0"
                         y="0"
                         width="100%"
                         height="100%" /></clipPath><rect
                       clip-path="url(#SVGID_84_)"
                       id="rect394"
                       height="33.900002"
                       width="33.900002"
                       class="st42"
                       y="-538.90002"
                       x="441"
                       style="opacity:0.77999998;fill:#7e7f87" /></g></g></g></g></g></g></g></g></g><g
     id="g396"
     transform="translate(-21,-23)"><defs
       id="defs398"><path
         d="m 461.6,-519.8 0,-7.5 c 0,-0.3 -0.2,-0.6 -0.4,-0.7 -0.3,-0.1 -0.6,-0.1 -0.8,0.1 l -3.4,3.1 c 0,0 -0.1,0.1 -0.1,0.1 l -0.1,0 -3.3,-3.3 c -0.1,-0.1 -0.3,-0.1 -0.4,0 -0.1,0.1 -0.1,0.3 0,0.4 l 2.9,2.9 -2.3,0 c -0.4,0 -0.7,0.3 -0.7,0.7 l 0,3.7 c 0,0.4 0.3,0.7 0.7,0.7 l 3.1,0 c 0.1,0 0.1,0 0.1,0.1 l 3.4,3.1 c 0.1,0.1 0.3,0.2 0.5,0.2 0.1,0 0.2,0 0.3,-0.1 0.3,-0.1 0.4,-0.4 0.4,-0.7 l 0,-2.2 2.9,2.9 c 0.1,0.1 0.1,0.1 0.2,0.1 0.1,0 0.1,0 0.2,-0.1 0.1,-0.1 0.1,-0.3 0,-0.4 l -3.2,-3.1 z m -0.8,-7.6 c 0.1,-0.1 0.2,-0.1 0.2,0 0,0 0.1,0.1 0.1,0.2 l 0,7 -3.9,-3.9 c 0.1,0 0.1,-0.1 0.2,-0.1 l 3.4,-3.2 z m 0.3,10.7 c 0,0.1 -0.1,0.2 -0.1,0.2 0,0 -0.1,0 -0.2,0 l -3.4,-3.1 c -0.1,-0.1 -0.3,-0.2 -0.5,-0.2 l -3.1,0 c -0.1,0 -0.2,-0.1 -0.2,-0.2 l 0,-3.7 c 0,-0.1 0.1,-0.2 0.2,-0.2 l 2.8,0 4.5,4.5 0,2.7 z"
         id="SVGID_85_"
         inkscape:connector-curvature="0" /></defs><clipPath
       id="SVGID_86_"><use
         id="use402"
         style="overflow:visible"
         xlink:href="#SVGID_85_"
         x="0"
         y="0"
         width="100%"
         height="100%" /></clipPath><g
       clip-path="url(#SVGID_86_)"
       id="g404"
       class="st43"><defs
         id="defs406"><rect
           height="2648"
           width="1024"
           y="-1289"
           x="-479"
           id="SVGID_87_" /></defs><clipPath
         id="SVGID_88_"><use
           id="use410"
           style="overflow:visible"
           xlink:href="#SVGID_87_"
           x="0"
           y="0"
           width="100%"
           height="100%" /></clipPath><rect
         clip-path="url(#SVGID_88_)"
         id="rect412"
         height="22"
         width="22"
         class="st44"
         y="-533"
         x="448"
         style="fill:#f9f7f7" /></g></g><g
     id="g414"
     transform="translate(-21,-23)"><g
       id="g416"
       class="st4"
       style="opacity:0.46200005;enable-background:new"><g
         id="g418"><defs
           id="defs420"><rect
             height="24"
             width="24"
             y="331"
             x="713"
             id="SVGID_89_" /></defs><clipPath
           id="SVGID_90_"><use
             id="use424"
             style="overflow:visible"
             xlink:href="#SVGID_89_"
             x="0"
             y="0"
             width="100%"
             height="100%" /></clipPath><g
           clip-path="url(#SVGID_90_)"
           id="g426"
           class="st45"><defs
             id="defs428"><rect
               height="23.9"
               width="23.9"
               y="331.10001"
               x="713"
               id="SVGID_91_" /></defs><clipPath
             id="SVGID_92_"><use
               id="use432"
               style="overflow:visible"
               xlink:href="#SVGID_91_"
               x="0"
               y="0"
               width="100%"
               height="100%" /></clipPath><g
             clip-path="url(#SVGID_92_)"
             id="g434"
             class="st46"><defs
               id="defs436"><rect
                 height="24"
                 width="24"
                 y="331"
                 x="713"
                 id="SVGID_93_" /></defs><clipPath
               id="SVGID_94_"><use
                 id="use440"
                 style="overflow:visible"
                 xlink:href="#SVGID_93_"
                 x="0"
                 y="0"
                 width="100%"
                 height="100%" /></clipPath><g
               clip-path="url(#SVGID_94_)"
               id="g442"
               class="st47"
               style="enable-background:new"><g
                 id="g444"><defs
                   id="defs446"><rect
                     height="24"
                     width="24"
                     y="331"
                     x="713"
                     id="SVGID_95_" /></defs><clipPath
                   id="SVGID_96_"><use
                     id="use450"
                     style="overflow:visible"
                     xlink:href="#SVGID_95_"
                     x="0"
                     y="0"
                     width="100%"
                     height="100%" /></clipPath><g
                   clip-path="url(#SVGID_96_)"
                   id="g452"
                   class="st48"><defs
                     id="defs454"><path
                       d="m 713,335.4 0,15.3 c 0,2.4 1.9,4.3 4.3,4.3 l 15.3,0 c 2.4,0 4.3,-1.9 4.3,-4.3 l 0,-15.3 c 0,-2.4 -1.9,-4.3 -4.3,-4.3 l -15.3,0 c -2.4,0 -4.3,1.9 -4.3,4.3"
                       id="SVGID_97_"
                       inkscape:connector-curvature="0" /></defs><clipPath
                     id="SVGID_98_"><use
                       id="use458"
                       style="overflow:visible"
                       xlink:href="#SVGID_97_"
                       x="0"
                       y="0"
                       width="100%"
                       height="100%" /></clipPath><g
                     clip-path="url(#SVGID_98_)"
                     id="g460"
                     class="st49"><defs
                       id="defs462"><rect
                         height="24"
                         width="24"
                         y="331"
                         x="713"
                         id="SVGID_99_" /></defs><clipPath
                       id="SVGID_100_"><use
                         id="use466"
                         style="overflow:visible"
                         xlink:href="#SVGID_99_"
                         x="0"
                         y="0"
                         width="100%"
                         height="100%" /></clipPath><rect
                       clip-path="url(#SVGID_100_)"
                       id="rect468"
                       height="33.900002"
                       width="33.900002"
                       class="st50"
                       y="326.10001"
                       x="708"
                       style="opacity:0.77999998;fill:#7e7f87" /></g></g></g></g></g></g></g></g></g><g
     id="g470"
     transform="translate(-21,-23)"><defs
       id="defs472"><path
         d="m 728.6,345.2 0,-7.5 c 0,-0.3 -0.2,-0.6 -0.4,-0.7 -0.3,-0.1 -0.6,-0.1 -0.8,0.1 l -3.4,3.1 c 0,0 -0.1,0.1 -0.1,0.1 l -0.1,0 -3.3,-3.3 c -0.1,-0.1 -0.3,-0.1 -0.4,0 -0.1,0.1 -0.1,0.3 0,0.4 l 2.9,2.9 -2.3,0 c -0.4,0 -0.7,0.3 -0.7,0.7 l 0,3.7 c 0,0.4 0.3,0.7 0.7,0.7 l 3.1,0 c 0.1,0 0.1,0 0.1,0.1 l 3.4,3.1 c 0.1,0.1 0.3,0.2 0.5,0.2 0.1,0 0.2,0 0.3,-0.1 0.3,-0.1 0.4,-0.4 0.4,-0.7 l 0,-2 2.9,2.9 c 0.1,0.1 0.1,0.1 0.2,0.1 0.1,0 0.1,0 0.2,-0.1 0.1,-0.1 0.1,-0.3 0,-0.4 l -3.2,-3.3 z m -0.8,-7.6 c 0.1,-0.1 0.2,-0.1 0.2,0 0,0 0.1,0.1 0.1,0.2 l 0,7 -3.9,-3.9 c 0.1,0 0.1,-0.1 0.2,-0.1 l 3.4,-3.2 z m 0.3,10.7 c 0,0.1 -0.1,0.2 -0.1,0.2 0,0 -0.1,0 -0.2,0 l -3.4,-3.1 c -0.1,-0.1 -0.3,-0.2 -0.5,-0.2 l -3.1,0 c -0.1,0 -0.2,-0.1 -0.2,-0.2 l 0,-3.7 c 0,-0.1 0.1,-0.2 0.2,-0.2 l 2.8,0 4.5,4.5 0,2.7 z"
         id="SVGID_101_"
         inkscape:connector-curvature="0" /></defs><clipPath
       id="SVGID_102_"><use
         id="use476"
         style="overflow:visible"
         xlink:href="#SVGID_101_"
         x="0"
         y="0"
         width="100%"
         height="100%" /></clipPath><g
       clip-path="url(#SVGID_102_)"
       id="g478"
       class="st51"><defs
         id="defs480"><rect
           height="2648"
           width="1024"
           y="-424"
           x="-212"
           id="SVGID_103_" /></defs><clipPath
         id="SVGID_104_"><use
           id="use484"
           style="overflow:visible"
           xlink:href="#SVGID_103_"
           x="0"
           y="0"
           width="100%"
           height="100%" /></clipPath><rect
         clip-path="url(#SVGID_104_)"
         id="rect486"
         height="22"
         width="22"
         class="st52"
         y="332"
         x="715"
         style="fill:#f9f7f7" /></g></g><g
     id="g488"
     class="st53"
     style="opacity:0.38280005;enable-background:new"
     transform="translate(-21,-23)"><g
       id="g490"><defs
         id="defs492"><rect
           height="25"
           width="25"
           y="23"
           x="21"
           id="SVGID_105_" /></defs><clipPath
         id="SVGID_106_"><use
           id="use496"
           style="overflow:visible"
           xlink:href="#SVGID_105_"
           x="0"
           y="0"
           width="100%"
           height="100%" /></clipPath><g
         clip-path="url(#SVGID_106_)"
         id="g498"
         class="st54"><defs
           id="defs500"><polygon
             points="21,23 45.6,23 45.6,35.3 45.6,47.6 21,47.6 21,35.3 "
             id="SVGID_107_" /></defs><clipPath
           id="SVGID_108_"><use
             id="use504"
             style="overflow:visible"
             xlink:href="#SVGID_107_"
             x="0"
             y="0"
             width="100%"
             height="100%" /></clipPath><g
           clip-path="url(#SVGID_108_)"
           id="g506"
           class="st55"><defs
             id="defs508"><rect
               height="25"
               width="25"
               y="23"
               x="21"
               id="SVGID_109_" /></defs><clipPath
             id="SVGID_110_"><use
               id="use512"
               style="overflow:visible"
               xlink:href="#SVGID_109_"
               x="0"
               y="0"
               width="100%"
               height="100%" /></clipPath><g
             clip-path="url(#SVGID_110_)"
             id="g514"
             class="st56"
             style="enable-background:new"><g
               id="g516"><defs
                 id="defs518"><rect
                   height="25"
                   width="25"
                   y="23"
                   x="21"
                   id="SVGID_111_" /></defs><clipPath
                 id="SVGID_112_"><use
                   id="use522"
                   style="overflow:visible"
                   xlink:href="#SVGID_111_"
                   x="0"
                   y="0"
                   width="100%"
                   height="100%" /></clipPath><g
                 clip-path="url(#SVGID_112_)"
                 id="g524"
                 class="st57"><defs
                   id="defs526"><path
                     d="M 22.6,23 C 21.7,23 21,23.7 21,24.6 L 21,46 c 0,0.9 0.7,1.6 1.6,1.6 l 21.4,0 c 0.9,0 1.6,-0.7 1.6,-1.6 l 0,-21.4 C 45.6,23.7 44.9,23 44,23 l -21.4,0 z m 19.7,8.9 -0.3,3.3 -3.4,0 0,11.6 -4.3,0 0,-11.6 -2.3,0 0,-3.3 2.3,0 0,-1 0,-1 0,-0.2 c 0,-1 0,-2.5 0.7,-3.5 0.8,-1 1.8,-1.7 3.6,-1.7 2.9,0 4.1,0.4 4.1,0.4 l -0.6,3.4 c 0,0 -1,-0.3 -1.9,-0.3 -0.9,0 -1.7,0.3 -1.7,1.2 l 0,0.4 0,1.2 0,1 3.8,0 z"
                     id="SVGID_113_"
                     inkscape:connector-curvature="0" /></defs><clipPath
                   id="SVGID_114_"><use
                     id="use530"
                     style="overflow:visible"
                     xlink:href="#SVGID_113_"
                     x="0"
                     y="0"
                     width="100%"
                     height="100%" /></clipPath><g
                   clip-path="url(#SVGID_114_)"
                   id="g532"
                   class="st58"><defs
                     id="defs534"><rect
                       height="25"
                       width="25"
                       y="23"
                       x="21"
                       id="SVGID_115_" /></defs><clipPath
                     id="SVGID_116_"><use
                       id="use538"
                       style="overflow:visible"
                       xlink:href="#SVGID_115_"
                       x="0"
                       y="0"
                       width="100%"
                       height="100%" /></clipPath><rect
                     clip-path="url(#SVGID_116_)"
                     id="rect540"
                     height="34.599998"
                     width="34.599998"
                     class="st59"
                     y="18"
                     x="16"
                     style="fill:#7e7f87" /></g></g></g></g></g></g></g></g></svg>