<?xml version="1.0" encoding="UTF-8"?>
<svg width="26px" height="25px" viewBox="0 0 26 25" version="1.1" xmlns="http://www.w3.org/2000/svg" xmlns:xlink="http://www.w3.org/1999/xlink">
    <!-- Generator: Sketch 44.1 (41455) - http://www.bohemiancoding.com/sketch -->
    <title>Page 1</title>
    <desc>Created with Sketch.</desc>
    <defs>
        <polygon id="path-1" points="12.9775952 0.0429728662 25.9551724 0.0429728662 25.9551724 24.9242624 12.9775952 24.9242624 1.79310345e-05 24.9242624 1.79310345e-05 0.0429728662 12.9775952 0.0429728662"></polygon>
        <polygon id="path-3" points="0 25.053181 25.9551724 25.053181 25.9551724 0.171891465 0 0.171891465"></polygon>
    </defs>
    <g id="Welcome" stroke="none" stroke-width="1" fill="none" fill-rule="evenodd" opacity="0.430140399">
        <g id="Desktop" transform="translate(-578.000000, -1042.000000)">
            <g id="Page-1" transform="translate(578.000000, 1042.000000)">
                <g id="Group-3" transform="translate(0.000000, 0.128919)">
                    <mask id="mask-2" fill="white">
                        <use xlink:href="#path-1"></use>
                    </mask>
                    <g id="Clip-2"></g>
                    <path d="M1.79310345e-05,12.4836176 C1.79310345e-05,19.3544633 5.81021103,24.9242624 12.9776041,24.9242624 C20.1449972,24.9242624 25.9551903,19.3544633 25.9551903,12.4836176 C25.9551903,5.612772 20.1449972,0.0429728662 12.9776041,0.0429728662 C5.81021103,0.0429728662 1.79310345e-05,5.612772 1.79310345e-05,12.4836176" id="Fill-1" fill="#7E7F87" mask="url(#mask-2)"></path>
                </g>
                <mask id="mask-4" fill="white">
                    <use xlink:href="#path-3"></use>
                </mask>
                <g id="Clip-5"></g>
                <path d="M5.14764138,17.96283 L21.3026069,17.96283 L21.3026069,7.26224249 L5.14764138,7.26224249 L5.14764138,17.96283 Z M21.6590759,6.57845825 L4.7909931,6.57845825 C4.59393103,6.57845825 4.43434483,6.73161354 4.43434483,6.92052226 L4.43434483,18.3045502 C4.43434483,18.4934589 4.59393103,18.6466142 4.7909931,18.6466142 L21.6590759,18.6466142 C21.8561379,18.6466142 22.0157241,18.4934589 22.0157241,18.3045502 L22.0157241,6.92052226 C22.0157241,6.73161354 21.8561379,6.57845825 21.6590759,6.57845825 L21.6590759,6.57845825 Z" id="Fill-4" fill="#FFFFFF" mask="url(#mask-4)"></path>
                <polygon id="Fill-6" fill="#FFFFFF" mask="url(#mask-4)" points="17.3785793 10.9529241 20.3944 10.9529241 20.3944 8.08130532 17.3785793 8.08130532"></polygon>
                <polygon id="Fill-7" fill="#FFFFFF" mask="url(#mask-4)" points="13.1359172 17.2013508 13.5815034 17.2013508 13.5815034 7.94619863 13.1359172 7.94619863"></polygon>
                <path d="M5.99448828,8.81418829 L12.0214676,8.81418829 C12.0707779,8.81418829 12.1105848,8.71769791 12.1105848,8.59914021 C12.1105848,8.48058252 12.0707779,8.38409214 12.0214676,8.38409214 L5.99448828,8.38409214 C5.94535724,8.38409214 5.90537103,8.48058252 5.90537103,8.59914021 C5.90537103,8.71769791 5.94535724,8.81418829 5.99448828,8.81418829" id="Fill-8" fill="#FFFFFF" mask="url(#mask-4)"></path>
                <path d="M5.99448828,10.0684631 L12.0214676,10.0684631 C12.0707779,10.0684631 12.1105848,9.97197273 12.1105848,9.85341504 C12.1105848,9.73485735 12.0707779,9.63836697 12.0214676,9.63836697 L5.99448828,9.63836697 C5.94535724,9.63836697 5.90537103,9.73485735 5.90537103,9.85341504 C5.90537103,9.97197273 5.94535724,10.0684631 5.99448828,10.0684631" id="Fill-9" fill="#FFFFFF" mask="url(#mask-4)"></path>
                <path d="M5.99448828,11.3227379 L12.0214676,11.3227379 C12.0707779,11.3227379 12.1105848,11.2262476 12.1105848,11.1076899 C12.1105848,10.9891322 12.0707779,10.8926418 12.0214676,10.8926418 L5.99448828,10.8926418 C5.94535724,10.8926418 5.90537103,10.9891322 5.90537103,11.1076899 C5.90537103,11.2262476 5.94535724,11.3227379 5.99448828,11.3227379" id="Fill-10" fill="#FFFFFF" mask="url(#mask-4)"></path>
                <path d="M14.14348,13.179458 L20.17028,13.179458 C20.2195903,13.179458 20.2593972,13.0829676 20.2593972,12.9644099 C20.2593972,12.8458522 20.2195903,12.7493618 20.17028,12.7493618 L14.14348,12.7493618 C14.0941697,12.7493618 14.0541834,12.8458522 14.0541834,12.9644099 C14.0541834,13.0829676 14.0941697,13.179458 14.14348,13.179458" id="Fill-11" fill="#FFFFFF" mask="url(#mask-4)"></path>
                <path d="M14.14348,14.3079284 L20.17028,14.3079284 C20.2195903,14.3079284 20.2593972,14.211438 20.2593972,14.0924476 C20.2593972,13.9738899 20.2195903,13.8773996 20.17028,13.8773996 L14.14348,13.8773996 C14.0941697,13.8773996 14.0541834,13.9738899 14.0541834,14.0924476 C14.0541834,14.211438 14.0941697,14.3079284 14.14348,14.3079284" id="Fill-12" fill="#FFFFFF" mask="url(#mask-4)"></path>
                <path d="M14.14348,15.4357053 L20.17028,15.4357053 C20.2195903,15.4357053 20.2593972,15.339215 20.2593972,15.2206573 C20.2593972,15.1020996 20.2195903,15.0056092 20.17028,15.0056092 L14.14348,15.0056092 C14.0941697,15.0056092 14.0541834,15.1020996 14.0541834,15.2206573 C14.0541834,15.339215 14.0941697,15.4357053 14.14348,15.4357053" id="Fill-13" fill="#FFFFFF" mask="url(#mask-4)"></path>
                <path d="M14.14348,16.563915 L20.17028,16.563915 C20.2195903,16.563915 20.2593972,16.4674246 20.2593972,16.3488669 C20.2593972,16.2303092 20.2195903,16.1338188 20.17028,16.1338188 L14.14348,16.1338188 C14.0941697,16.1338188 14.0541834,16.2303092 14.0541834,16.3488669 C14.0541834,16.4674246 14.0941697,16.563915 14.14348,16.563915" id="Fill-14" fill="#FFFFFF" mask="url(#mask-4)"></path>
            </g>
        </g>
    </g>
</svg>