<?xml version="1.0" encoding="UTF-8" standalone="no"?>
<!-- Generator: Adobe Illustrator 21.1.0, SVG Export Plug-In . SVG Version: 6.00 Build 0)  -->

<svg
   xmlns:dc="http://purl.org/dc/elements/1.1/"
   xmlns:cc="http://creativecommons.org/ns#"
   xmlns:rdf="http://www.w3.org/1999/02/22-rdf-syntax-ns#"
   xmlns:svg="http://www.w3.org/2000/svg"
   xmlns="http://www.w3.org/2000/svg"
   xmlns:xlink="http://www.w3.org/1999/xlink"
   xmlns:sodipodi="http://sodipodi.sourceforge.net/DTD/sodipodi-0.dtd"
   xmlns:inkscape="http://www.inkscape.org/namespaces/inkscape"
   version="1.1"
   x="0px"
   y="0px"
   viewBox="0 0 23.9 23.9"
   xml:space="preserve"
   id="svg1248"
   inkscape:version="0.91 r13725"
   sodipodi:docname="shr.svg"
   width="23.9"
   height="23.9"><metadata
     id="metadata1794"><rdf:RDF><cc:Work
         rdf:about=""><dc:format>image/svg+xml</dc:format><dc:type
           rdf:resource="http://purl.org/dc/dcmitype/StillImage" /></cc:Work></rdf:RDF></metadata><defs
     id="defs1792" /><sodipodi:namedview
     pagecolor="#ffffff"
     bordercolor="#666666"
     borderopacity="1"
     objecttolerance="10"
     gridtolerance="10"
     guidetolerance="10"
     inkscape:pageopacity="0"
     inkscape:pageshadow="2"
     inkscape:window-width="640"
     inkscape:window-height="480"
     id="namedview1790"
     showgrid="false"
     fit-margin-top="0"
     fit-margin-left="0"
     fit-margin-right="0"
     fit-margin-bottom="0"
     inkscape:zoom="3.4705882"
     inkscape:cx="18"
     inkscape:cy="1.8999996"
     inkscape:window-x="0"
     inkscape:window-y="25"
     inkscape:window-maximized="0"
     inkscape:current-layer="svg1248" /><style
     type="text/css"
     id="style1250">
	.st0{clip-path:url(#SVGID_2_);}
	.st1{clip-path:url(#SVGID_4_);fill:#F9F7F7;}
	.st2{clip-path:url(#SVGID_6_);}
	.st3{clip-path:url(#SVGID_8_);fill:#F9F7F7;}
	.st4{opacity:0.462;enable-background:new    ;}
	.st5{clip-path:url(#SVGID_10_);}
	.st6{clip-path:url(#SVGID_12_);}
	.st7{clip-path:url(#SVGID_14_);enable-background:new    ;}
	.st8{clip-path:url(#SVGID_16_);}
	.st9{clip-path:url(#SVGID_18_);}
	.st10{opacity:0.78;clip-path:url(#SVGID_20_);fill:#7E7F87;}
	.st11{clip-path:url(#SVGID_22_);}
	.st12{clip-path:url(#SVGID_24_);fill:#F9F7F7;}
	.st13{clip-path:url(#SVGID_26_);}
	.st14{clip-path:url(#SVGID_28_);}
	.st15{clip-path:url(#SVGID_30_);enable-background:new    ;}
	.st16{clip-path:url(#SVGID_32_);}
	.st17{clip-path:url(#SVGID_34_);}
	.st18{opacity:0.78;clip-path:url(#SVGID_36_);fill:#7E7F87;}
	.st19{clip-path:url(#SVGID_38_);}
	.st20{clip-path:url(#SVGID_40_);fill:#F9F7F7;}
	.st21{clip-path:url(#SVGID_42_);}
	.st22{clip-path:url(#SVGID_44_);}
	.st23{clip-path:url(#SVGID_46_);enable-background:new    ;}
	.st24{clip-path:url(#SVGID_48_);}
	.st25{clip-path:url(#SVGID_50_);}
	.st26{opacity:0.78;clip-path:url(#SVGID_52_);fill:#7E7F87;}
	.st27{clip-path:url(#SVGID_54_);}
	.st28{clip-path:url(#SVGID_56_);fill:#F9F7F7;}
	.st29{clip-path:url(#SVGID_58_);}
	.st30{clip-path:url(#SVGID_60_);}
	.st31{clip-path:url(#SVGID_62_);enable-background:new    ;}
	.st32{clip-path:url(#SVGID_64_);}
	.st33{clip-path:url(#SVGID_66_);}
	.st34{opacity:0.78;clip-path:url(#SVGID_68_);fill:#7E7F87;}
	.st35{clip-path:url(#SVGID_70_);}
	.st36{clip-path:url(#SVGID_72_);fill:#F9F7F7;}
	.st37{clip-path:url(#SVGID_74_);}
	.st38{clip-path:url(#SVGID_76_);}
	.st39{clip-path:url(#SVGID_78_);enable-background:new    ;}
	.st40{clip-path:url(#SVGID_80_);}
	.st41{clip-path:url(#SVGID_82_);}
	.st42{opacity:0.78;clip-path:url(#SVGID_84_);fill:#7E7F87;}
	.st43{clip-path:url(#SVGID_86_);}
	.st44{clip-path:url(#SVGID_88_);fill:#F9F7F7;}
	.st45{clip-path:url(#SVGID_90_);}
	.st46{clip-path:url(#SVGID_92_);}
	.st47{clip-path:url(#SVGID_94_);enable-background:new    ;}
	.st48{clip-path:url(#SVGID_96_);}
	.st49{clip-path:url(#SVGID_98_);}
	.st50{opacity:0.78;clip-path:url(#SVGID_100_);fill:#7E7F87;}
	.st51{clip-path:url(#SVGID_102_);}
	.st52{clip-path:url(#SVGID_104_);fill:#F9F7F7;}
	.st53{opacity:0.3828;enable-background:new    ;}
	.st54{clip-path:url(#SVGID_106_);}
	.st55{clip-path:url(#SVGID_108_);}
	.st56{clip-path:url(#SVGID_110_);enable-background:new    ;}
	.st57{clip-path:url(#SVGID_112_);}
	.st58{clip-path:url(#SVGID_114_);}
	.st59{clip-path:url(#SVGID_116_);fill:#7E7F87;}
</style><g
     id="Layer_1"
     transform="translate(-15,-12)"><g
       id="g1253"><defs
         id="defs1255"><path
           id="SVGID_1_"
           d="m 461.6,-520.8 0,-7.5 c 0,-0.3 -0.2,-0.6 -0.4,-0.7 -0.3,-0.1 -0.6,-0.1 -0.8,0.1 l -3.4,3.1 c 0,0 -0.1,0.1 -0.1,0.1 l -0.1,0 -3.3,-3.3 c -0.1,-0.1 -0.3,-0.1 -0.4,0 -0.1,0.1 -0.1,0.3 0,0.4 l 2.9,2.9 -2.3,0 c -0.4,0 -0.7,0.3 -0.7,0.7 l 0,3.7 c 0,0.4 0.3,0.7 0.7,0.7 l 3.1,0 c 0.1,0 0.1,0 0.1,0.1 l 3.4,3.1 c 0.1,0.1 0.3,0.2 0.5,0.2 0.1,0 0.2,0 0.3,-0.1 0.3,-0.1 0.4,-0.4 0.4,-0.7 l 0,-2.2 2.9,2.9 c 0.1,0.1 0.1,0.1 0.2,0.1 0.1,0 0.1,0 0.2,-0.1 0.1,-0.1 0.1,-0.3 0,-0.4 l -3.2,-3.1 z m -0.8,-7.6 c 0.1,-0.1 0.2,-0.1 0.2,0 0,0 0.1,0.1 0.1,0.2 l 0,7 -3.9,-3.9 c 0.1,0 0.1,-0.1 0.2,-0.1 l 3.4,-3.2 z m 0.3,10.7 c 0,0.1 -0.1,0.2 -0.1,0.2 0,0 -0.1,0 -0.2,0 l -3.4,-3.1 c -0.1,-0.1 -0.3,-0.2 -0.5,-0.2 l -3.1,0 c -0.1,0 -0.2,-0.1 -0.2,-0.2 l 0,-3.7 c 0,-0.1 0.1,-0.2 0.2,-0.2 l 2.8,0 4.5,4.5 0,2.7 z"
           inkscape:connector-curvature="0" /></defs><clipPath
         id="SVGID_2_"><use
           xlink:href="#SVGID_1_"
           style="overflow:visible"
           id="use1259"
           x="0"
           y="0"
           width="100%"
           height="100%" /></clipPath><g
         class="st0"
         id="g1261"
         clip-path="url(#SVGID_2_)"><defs
           id="defs1263"><rect
             id="SVGID_3_"
             x="-479"
             y="-1290"
             width="1024"
             height="2648" /></defs><clipPath
           id="SVGID_4_"><use
             xlink:href="#SVGID_3_"
             style="overflow:visible"
             id="use1267"
             x="0"
             y="0"
             width="100%"
             height="100%" /></clipPath><rect
           x="448"
           y="-534"
           class="st1"
           width="22"
           height="22"
           id="rect1269"
           clip-path="url(#SVGID_4_)"
           style="fill:#f9f7f7" /></g></g><g
       id="g1271"><defs
         id="defs1273"><path
           id="SVGID_5_"
           d="m 461.6,-520.8 0,-7.5 c 0,-0.3 -0.2,-0.6 -0.4,-0.7 -0.3,-0.1 -0.6,-0.1 -0.8,0.1 l -3.4,3.1 c 0,0 -0.1,0.1 -0.1,0.1 l -0.1,0 -3.3,-3.3 c -0.1,-0.1 -0.3,-0.1 -0.4,0 -0.1,0.1 -0.1,0.3 0,0.4 l 2.9,2.9 -2.3,0 c -0.4,0 -0.7,0.3 -0.7,0.7 l 0,3.7 c 0,0.4 0.3,0.7 0.7,0.7 l 3.1,0 c 0.1,0 0.1,0 0.1,0.1 l 3.4,3.1 c 0.1,0.1 0.3,0.2 0.5,0.2 0.1,0 0.2,0 0.3,-0.1 0.3,-0.1 0.4,-0.4 0.4,-0.7 l 0,-2.2 2.9,2.9 c 0.1,0.1 0.1,0.1 0.2,0.1 0.1,0 0.1,0 0.2,-0.1 0.1,-0.1 0.1,-0.3 0,-0.4 l -3.2,-3.1 z m -0.8,-7.6 c 0.1,-0.1 0.2,-0.1 0.2,0 0,0 0.1,0.1 0.1,0.2 l 0,7 -3.9,-3.9 c 0.1,0 0.1,-0.1 0.2,-0.1 l 3.4,-3.2 z m 0.3,10.7 c 0,0.1 -0.1,0.2 -0.1,0.2 0,0 -0.1,0 -0.2,0 l -3.4,-3.1 c -0.1,-0.1 -0.3,-0.2 -0.5,-0.2 l -3.1,0 c -0.1,0 -0.2,-0.1 -0.2,-0.2 l 0,-3.7 c 0,-0.1 0.1,-0.2 0.2,-0.2 l 2.8,0 4.5,4.5 0,2.7 z"
           inkscape:connector-curvature="0" /></defs><clipPath
         id="SVGID_6_"><use
           xlink:href="#SVGID_5_"
           style="overflow:visible"
           id="use1277"
           x="0"
           y="0"
           width="100%"
           height="100%" /></clipPath><g
         class="st2"
         id="g1279"
         clip-path="url(#SVGID_6_)"><defs
           id="defs1281"><rect
             id="SVGID_7_"
             x="-479"
             y="-1290"
             width="1024"
             height="2648" /></defs><clipPath
           id="SVGID_8_"><use
             xlink:href="#SVGID_7_"
             style="overflow:visible"
             id="use1285"
             x="0"
             y="0"
             width="100%"
             height="100%" /></clipPath><rect
           x="448"
           y="-534"
           class="st3"
           width="22"
           height="22"
           id="rect1287"
           clip-path="url(#SVGID_8_)"
           style="fill:#f9f7f7" /></g></g><g
       id="g1289"><g
         class="st4"
         id="g1291"
         style="opacity:0.46200005;enable-background:new"><g
           id="g1293"><defs
             id="defs1295"><rect
               id="SVGID_9_"
               x="446"
               y="-535"
               width="24"
               height="24" /></defs><clipPath
             id="SVGID_10_"><use
               xlink:href="#SVGID_9_"
               style="overflow:visible"
               id="use1299"
               x="0"
               y="0"
               width="100%"
               height="100%" /></clipPath><g
             class="st5"
             id="g1301"
             clip-path="url(#SVGID_10_)"><defs
               id="defs1303"><rect
                 id="SVGID_11_"
                 x="446"
                 y="-534.90002"
                 width="23.9"
                 height="23.9" /></defs><clipPath
               id="SVGID_12_"><use
                 xlink:href="#SVGID_11_"
                 style="overflow:visible"
                 id="use1307"
                 x="0"
                 y="0"
                 width="100%"
                 height="100%" /></clipPath><g
               class="st6"
               id="g1309"
               clip-path="url(#SVGID_12_)"><defs
                 id="defs1311"><rect
                   id="SVGID_13_"
                   x="446"
                   y="-535"
                   width="24"
                   height="24" /></defs><clipPath
                 id="SVGID_14_"><use
                   xlink:href="#SVGID_13_"
                   style="overflow:visible"
                   id="use1315"
                   x="0"
                   y="0"
                   width="100%"
                   height="100%" /></clipPath><g
                 class="st7"
                 id="g1317"
                 clip-path="url(#SVGID_14_)"
                 style="enable-background:new"><g
                   id="g1319"><defs
                     id="defs1321"><rect
                       id="SVGID_15_"
                       x="446"
                       y="-535"
                       width="24"
                       height="24" /></defs><clipPath
                     id="SVGID_16_"><use
                       xlink:href="#SVGID_15_"
                       style="overflow:visible"
                       id="use1325"
                       x="0"
                       y="0"
                       width="100%"
                       height="100%" /></clipPath><g
                     class="st8"
                     id="g1327"
                     clip-path="url(#SVGID_16_)"><defs
                       id="defs1329"><path
                         id="SVGID_17_"
                         d="m 446,-530.6 0,15.3 c 0,2.4 1.9,4.3 4.3,4.3 l 15.3,0 c 2.4,0 4.3,-1.9 4.3,-4.3 l 0,-15.3 c 0,-2.4 -1.9,-4.3 -4.3,-4.3 l -15.3,0 c -2.4,0 -4.3,1.9 -4.3,4.3"
                         inkscape:connector-curvature="0" /></defs><clipPath
                       id="SVGID_18_"><use
                         xlink:href="#SVGID_17_"
                         style="overflow:visible"
                         id="use1333"
                         x="0"
                         y="0"
                         width="100%"
                         height="100%" /></clipPath><g
                       class="st9"
                       id="g1335"
                       clip-path="url(#SVGID_18_)"><defs
                         id="defs1337"><rect
                           id="SVGID_19_"
                           x="446"
                           y="-535"
                           width="24"
                           height="24" /></defs><clipPath
                         id="SVGID_20_"><use
                           xlink:href="#SVGID_19_"
                           style="overflow:visible"
                           id="use1341"
                           x="0"
                           y="0"
                           width="100%"
                           height="100%" /></clipPath><rect
                         x="441"
                         y="-539.90002"
                         class="st10"
                         width="33.900002"
                         height="33.900002"
                         id="rect1343"
                         clip-path="url(#SVGID_20_)"
                         style="opacity:0.77999998;fill:#7e7f87" /></g></g></g></g></g></g></g></g></g><g
       id="g1345"><defs
         id="defs1347"><path
           id="SVGID_21_"
           d="m 461.6,-520.8 0,-7.5 c 0,-0.3 -0.2,-0.6 -0.4,-0.7 -0.3,-0.1 -0.6,-0.1 -0.8,0.1 l -3.4,3.1 c 0,0 -0.1,0.1 -0.1,0.1 l -0.1,0 -3.3,-3.3 c -0.1,-0.1 -0.3,-0.1 -0.4,0 -0.1,0.1 -0.1,0.3 0,0.4 l 2.9,2.9 -2.3,0 c -0.4,0 -0.7,0.3 -0.7,0.7 l 0,3.7 c 0,0.4 0.3,0.7 0.7,0.7 l 3.1,0 c 0.1,0 0.1,0 0.1,0.1 l 3.4,3.1 c 0.1,0.1 0.3,0.2 0.5,0.2 0.1,0 0.2,0 0.3,-0.1 0.3,-0.1 0.4,-0.4 0.4,-0.7 l 0,-2.2 2.9,2.9 c 0.1,0.1 0.1,0.1 0.2,0.1 0.1,0 0.1,0 0.2,-0.1 0.1,-0.1 0.1,-0.3 0,-0.4 l -3.2,-3.1 z m -0.8,-7.6 c 0.1,-0.1 0.2,-0.1 0.2,0 0,0 0.1,0.1 0.1,0.2 l 0,7 -3.9,-3.9 c 0.1,0 0.1,-0.1 0.2,-0.1 l 3.4,-3.2 z m 0.3,10.7 c 0,0.1 -0.1,0.2 -0.1,0.2 0,0 -0.1,0 -0.2,0 l -3.4,-3.1 c -0.1,-0.1 -0.3,-0.2 -0.5,-0.2 l -3.1,0 c -0.1,0 -0.2,-0.1 -0.2,-0.2 l 0,-3.7 c 0,-0.1 0.1,-0.2 0.2,-0.2 l 2.8,0 4.5,4.5 0,2.7 z"
           inkscape:connector-curvature="0" /></defs><clipPath
         id="SVGID_22_"><use
           xlink:href="#SVGID_21_"
           style="overflow:visible"
           id="use1351"
           x="0"
           y="0"
           width="100%"
           height="100%" /></clipPath><g
         class="st11"
         id="g1353"
         clip-path="url(#SVGID_22_)"><defs
           id="defs1355"><rect
             id="SVGID_23_"
             x="-479"
             y="-1290"
             width="1024"
             height="2648" /></defs><clipPath
           id="SVGID_24_"><use
             xlink:href="#SVGID_23_"
             style="overflow:visible"
             id="use1359"
             x="0"
             y="0"
             width="100%"
             height="100%" /></clipPath><rect
           x="448"
           y="-534"
           class="st12"
           width="22"
           height="22"
           id="rect1361"
           clip-path="url(#SVGID_24_)"
           style="fill:#f9f7f7" /></g></g><g
       id="g1363"><g
         class="st4"
         id="g1365"
         style="opacity:0.46200005;enable-background:new"><g
           id="g1367"><defs
             id="defs1369"><rect
               id="SVGID_25_"
               x="713"
               y="331"
               width="24"
               height="24" /></defs><clipPath
             id="SVGID_26_"><use
               xlink:href="#SVGID_25_"
               style="overflow:visible"
               id="use1373"
               x="0"
               y="0"
               width="100%"
               height="100%" /></clipPath><g
             class="st13"
             id="g1375"
             clip-path="url(#SVGID_26_)"><defs
               id="defs1377"><rect
                 id="SVGID_27_"
                 x="713"
                 y="331.10001"
                 width="23.9"
                 height="23.9" /></defs><clipPath
               id="SVGID_28_"><use
                 xlink:href="#SVGID_27_"
                 style="overflow:visible"
                 id="use1381"
                 x="0"
                 y="0"
                 width="100%"
                 height="100%" /></clipPath><g
               class="st14"
               id="g1383"
               clip-path="url(#SVGID_28_)"><defs
                 id="defs1385"><rect
                   id="SVGID_29_"
                   x="713"
                   y="331"
                   width="24"
                   height="24" /></defs><clipPath
                 id="SVGID_30_"><use
                   xlink:href="#SVGID_29_"
                   style="overflow:visible"
                   id="use1389"
                   x="0"
                   y="0"
                   width="100%"
                   height="100%" /></clipPath><g
                 class="st15"
                 id="g1391"
                 clip-path="url(#SVGID_30_)"
                 style="enable-background:new"><g
                   id="g1393"><defs
                     id="defs1395"><rect
                       id="SVGID_31_"
                       x="713"
                       y="331"
                       width="24"
                       height="24" /></defs><clipPath
                     id="SVGID_32_"><use
                       xlink:href="#SVGID_31_"
                       style="overflow:visible"
                       id="use1399"
                       x="0"
                       y="0"
                       width="100%"
                       height="100%" /></clipPath><g
                     class="st16"
                     id="g1401"
                     clip-path="url(#SVGID_32_)"><defs
                       id="defs1403"><path
                         id="SVGID_33_"
                         d="m 713,335.4 0,15.3 c 0,2.4 1.9,4.3 4.3,4.3 l 15.3,0 c 2.4,0 4.3,-1.9 4.3,-4.3 l 0,-15.3 c 0,-2.4 -1.9,-4.3 -4.3,-4.3 l -15.3,0 c -2.4,0 -4.3,1.9 -4.3,4.3"
                         inkscape:connector-curvature="0" /></defs><clipPath
                       id="SVGID_34_"><use
                         xlink:href="#SVGID_33_"
                         style="overflow:visible"
                         id="use1407"
                         x="0"
                         y="0"
                         width="100%"
                         height="100%" /></clipPath><g
                       class="st17"
                       id="g1409"
                       clip-path="url(#SVGID_34_)"><defs
                         id="defs1411"><rect
                           id="SVGID_35_"
                           x="713"
                           y="331"
                           width="24"
                           height="24" /></defs><clipPath
                         id="SVGID_36_"><use
                           xlink:href="#SVGID_35_"
                           style="overflow:visible"
                           id="use1415"
                           x="0"
                           y="0"
                           width="100%"
                           height="100%" /></clipPath><rect
                         x="708"
                         y="326.10001"
                         class="st18"
                         width="33.900002"
                         height="33.900002"
                         id="rect1417"
                         clip-path="url(#SVGID_36_)"
                         style="opacity:0.77999998;fill:#7e7f87" /></g></g></g></g></g></g></g></g></g><g
       id="g1419"><defs
         id="defs1421"><path
           id="SVGID_37_"
           d="m 728.6,345.2 0,-7.5 c 0,-0.3 -0.2,-0.6 -0.4,-0.7 -0.3,-0.1 -0.6,-0.1 -0.8,0.1 l -3.4,3.1 c 0,0 -0.1,0.1 -0.1,0.1 l -0.1,0 -3.3,-3.3 c -0.1,-0.1 -0.3,-0.1 -0.4,0 -0.1,0.1 -0.1,0.3 0,0.4 l 2.9,2.9 -2.3,0 c -0.4,0 -0.7,0.3 -0.7,0.7 l 0,3.7 c 0,0.4 0.3,0.7 0.7,0.7 l 3.1,0 c 0.1,0 0.1,0 0.1,0.1 l 3.4,3.1 c 0.1,0.1 0.3,0.2 0.5,0.2 0.1,0 0.2,0 0.3,-0.1 0.3,-0.1 0.4,-0.4 0.4,-0.7 l 0,-2 2.9,2.9 c 0.1,0.1 0.1,0.1 0.2,0.1 0.1,0 0.1,0 0.2,-0.1 0.1,-0.1 0.1,-0.3 0,-0.4 l -3.2,-3.3 z m -0.8,-7.6 c 0.1,-0.1 0.2,-0.1 0.2,0 0,0 0.1,0.1 0.1,0.2 l 0,7 -3.9,-3.9 c 0.1,0 0.1,-0.1 0.2,-0.1 l 3.4,-3.2 z m 0.3,10.7 c 0,0.1 -0.1,0.2 -0.1,0.2 0,0 -0.1,0 -0.2,0 l -3.4,-3.1 c -0.1,-0.1 -0.3,-0.2 -0.5,-0.2 l -3.1,0 c -0.1,0 -0.2,-0.1 -0.2,-0.2 l 0,-3.7 c 0,-0.1 0.1,-0.2 0.2,-0.2 l 2.8,0 4.5,4.5 0,2.7 z"
           inkscape:connector-curvature="0" /></defs><clipPath
         id="SVGID_38_"><use
           xlink:href="#SVGID_37_"
           style="overflow:visible"
           id="use1425"
           x="0"
           y="0"
           width="100%"
           height="100%" /></clipPath><g
         class="st19"
         id="g1427"
         clip-path="url(#SVGID_38_)"><defs
           id="defs1429"><rect
             id="SVGID_39_"
             x="-212"
             y="-424"
             width="1024"
             height="2648" /></defs><clipPath
           id="SVGID_40_"><use
             xlink:href="#SVGID_39_"
             style="overflow:visible"
             id="use1433"
             x="0"
             y="0"
             width="100%"
             height="100%" /></clipPath><rect
           x="715"
           y="332"
           class="st20"
           width="22"
           height="22"
           id="rect1435"
           clip-path="url(#SVGID_40_)"
           style="fill:#f9f7f7" /></g></g><g
       id="g1437"><g
         class="st4"
         id="g1439"
         style="opacity:0.46200005;enable-background:new"><g
           id="g1441"><defs
             id="defs1443"><rect
               id="SVGID_41_"
               x="446"
               y="-534"
               width="24"
               height="24" /></defs><clipPath
             id="SVGID_42_"><use
               xlink:href="#SVGID_41_"
               style="overflow:visible"
               id="use1447"
               x="0"
               y="0"
               width="100%"
               height="100%" /></clipPath><g
             class="st21"
             id="g1449"
             clip-path="url(#SVGID_42_)"><defs
               id="defs1451"><rect
                 id="SVGID_43_"
                 x="446"
                 y="-533.90002"
                 width="23.9"
                 height="23.9" /></defs><clipPath
               id="SVGID_44_"><use
                 xlink:href="#SVGID_43_"
                 style="overflow:visible"
                 id="use1455"
                 x="0"
                 y="0"
                 width="100%"
                 height="100%" /></clipPath><g
               class="st22"
               id="g1457"
               clip-path="url(#SVGID_44_)"><defs
                 id="defs1459"><rect
                   id="SVGID_45_"
                   x="446"
                   y="-534"
                   width="24"
                   height="24" /></defs><clipPath
                 id="SVGID_46_"><use
                   xlink:href="#SVGID_45_"
                   style="overflow:visible"
                   id="use1463"
                   x="0"
                   y="0"
                   width="100%"
                   height="100%" /></clipPath><g
                 class="st23"
                 id="g1465"
                 clip-path="url(#SVGID_46_)"
                 style="enable-background:new"><g
                   id="g1467"><defs
                     id="defs1469"><rect
                       id="SVGID_47_"
                       x="446"
                       y="-534"
                       width="24"
                       height="24" /></defs><clipPath
                     id="SVGID_48_"><use
                       xlink:href="#SVGID_47_"
                       style="overflow:visible"
                       id="use1473"
                       x="0"
                       y="0"
                       width="100%"
                       height="100%" /></clipPath><g
                     class="st24"
                     id="g1475"
                     clip-path="url(#SVGID_48_)"><defs
                       id="defs1477"><path
                         id="SVGID_49_"
                         d="m 446,-529.6 0,15.3 c 0,2.4 1.9,4.3 4.3,4.3 l 15.3,0 c 2.4,0 4.3,-1.9 4.3,-4.3 l 0,-15.3 c 0,-2.4 -1.9,-4.3 -4.3,-4.3 l -15.3,0 c -2.4,0 -4.3,1.9 -4.3,4.3"
                         inkscape:connector-curvature="0" /></defs><clipPath
                       id="SVGID_50_"><use
                         xlink:href="#SVGID_49_"
                         style="overflow:visible"
                         id="use1481"
                         x="0"
                         y="0"
                         width="100%"
                         height="100%" /></clipPath><g
                       class="st25"
                       id="g1483"
                       clip-path="url(#SVGID_50_)"><defs
                         id="defs1485"><rect
                           id="SVGID_51_"
                           x="446"
                           y="-534"
                           width="24"
                           height="24" /></defs><clipPath
                         id="SVGID_52_"><use
                           xlink:href="#SVGID_51_"
                           style="overflow:visible"
                           id="use1489"
                           x="0"
                           y="0"
                           width="100%"
                           height="100%" /></clipPath><rect
                         x="441"
                         y="-538.90002"
                         class="st26"
                         width="33.900002"
                         height="33.900002"
                         id="rect1491"
                         clip-path="url(#SVGID_52_)"
                         style="opacity:0.77999998;fill:#7e7f87" /></g></g></g></g></g></g></g></g></g><g
       id="g1493"><defs
         id="defs1495"><path
           id="SVGID_53_"
           d="m 461.6,-519.8 0,-7.5 c 0,-0.3 -0.2,-0.6 -0.4,-0.7 -0.3,-0.1 -0.6,-0.1 -0.8,0.1 l -3.4,3.1 c 0,0 -0.1,0.1 -0.1,0.1 l -0.1,0 -3.3,-3.3 c -0.1,-0.1 -0.3,-0.1 -0.4,0 -0.1,0.1 -0.1,0.3 0,0.4 l 2.9,2.9 -2.3,0 c -0.4,0 -0.7,0.3 -0.7,0.7 l 0,3.7 c 0,0.4 0.3,0.7 0.7,0.7 l 3.1,0 c 0.1,0 0.1,0 0.1,0.1 l 3.4,3.1 c 0.1,0.1 0.3,0.2 0.5,0.2 0.1,0 0.2,0 0.3,-0.1 0.3,-0.1 0.4,-0.4 0.4,-0.7 l 0,-2.2 2.9,2.9 c 0.1,0.1 0.1,0.1 0.2,0.1 0.1,0 0.1,0 0.2,-0.1 0.1,-0.1 0.1,-0.3 0,-0.4 l -3.2,-3.1 z m -0.8,-7.6 c 0.1,-0.1 0.2,-0.1 0.2,0 0,0 0.1,0.1 0.1,0.2 l 0,7 -3.9,-3.9 c 0.1,0 0.1,-0.1 0.2,-0.1 l 3.4,-3.2 z m 0.3,10.7 c 0,0.1 -0.1,0.2 -0.1,0.2 0,0 -0.1,0 -0.2,0 l -3.4,-3.1 c -0.1,-0.1 -0.3,-0.2 -0.5,-0.2 l -3.1,0 c -0.1,0 -0.2,-0.1 -0.2,-0.2 l 0,-3.7 c 0,-0.1 0.1,-0.2 0.2,-0.2 l 2.8,0 4.5,4.5 0,2.7 z"
           inkscape:connector-curvature="0" /></defs><clipPath
         id="SVGID_54_"><use
           xlink:href="#SVGID_53_"
           style="overflow:visible"
           id="use1499"
           x="0"
           y="0"
           width="100%"
           height="100%" /></clipPath><g
         class="st27"
         id="g1501"
         clip-path="url(#SVGID_54_)"><defs
           id="defs1503"><rect
             id="SVGID_55_"
             x="-479"
             y="-1289"
             width="1024"
             height="2648" /></defs><clipPath
           id="SVGID_56_"><use
             xlink:href="#SVGID_55_"
             style="overflow:visible"
             id="use1507"
             x="0"
             y="0"
             width="100%"
             height="100%" /></clipPath><rect
           x="448"
           y="-533"
           class="st28"
           width="22"
           height="22"
           id="rect1509"
           clip-path="url(#SVGID_56_)"
           style="fill:#f9f7f7" /></g></g></g><g
     id="g1512"
     transform="translate(-15,-12)"><g
       style="opacity:0.46200005;enable-background:new"
       id="g1514"
       class="st4"><g
         id="g1516"><defs
           id="defs1518"><rect
             height="24"
             width="24"
             y="331"
             x="713"
             id="SVGID_57_" /></defs><clipPath
           id="SVGID_58_"><use
             height="100%"
             width="100%"
             y="0"
             x="0"
             id="use1522"
             style="overflow:visible"
             xlink:href="#SVGID_57_" /></clipPath><g
           clip-path="url(#SVGID_58_)"
           id="g1524"
           class="st29"><defs
             id="defs1526"><rect
               height="23.9"
               width="23.9"
               y="331.10001"
               x="713"
               id="SVGID_59_" /></defs><clipPath
             id="SVGID_60_"><use
               height="100%"
               width="100%"
               y="0"
               x="0"
               id="use1530"
               style="overflow:visible"
               xlink:href="#SVGID_59_" /></clipPath><g
             clip-path="url(#SVGID_60_)"
             id="g1532"
             class="st30"><defs
               id="defs1534"><rect
                 height="24"
                 width="24"
                 y="331"
                 x="713"
                 id="SVGID_61_" /></defs><clipPath
               id="SVGID_62_"><use
                 height="100%"
                 width="100%"
                 y="0"
                 x="0"
                 id="use1538"
                 style="overflow:visible"
                 xlink:href="#SVGID_61_" /></clipPath><g
               style="enable-background:new"
               clip-path="url(#SVGID_62_)"
               id="g1540"
               class="st31"><g
                 id="g1542"><defs
                   id="defs1544"><rect
                     height="24"
                     width="24"
                     y="331"
                     x="713"
                     id="SVGID_63_" /></defs><clipPath
                   id="SVGID_64_"><use
                     height="100%"
                     width="100%"
                     y="0"
                     x="0"
                     id="use1548"
                     style="overflow:visible"
                     xlink:href="#SVGID_63_" /></clipPath><g
                   clip-path="url(#SVGID_64_)"
                   id="g1550"
                   class="st32"><defs
                     id="defs1552"><path
                       inkscape:connector-curvature="0"
                       d="m 713,335.4 0,15.3 c 0,2.4 1.9,4.3 4.3,4.3 l 15.3,0 c 2.4,0 4.3,-1.9 4.3,-4.3 l 0,-15.3 c 0,-2.4 -1.9,-4.3 -4.3,-4.3 l -15.3,0 c -2.4,0 -4.3,1.9 -4.3,4.3"
                       id="SVGID_65_" /></defs><clipPath
                     id="SVGID_66_"><use
                       height="100%"
                       width="100%"
                       y="0"
                       x="0"
                       id="use1556"
                       style="overflow:visible"
                       xlink:href="#SVGID_65_" /></clipPath><g
                     clip-path="url(#SVGID_66_)"
                     id="g1558"
                     class="st33"><defs
                       id="defs1560"><rect
                         height="24"
                         width="24"
                         y="331"
                         x="713"
                         id="SVGID_67_" /></defs><clipPath
                       id="SVGID_68_"><use
                         height="100%"
                         width="100%"
                         y="0"
                         x="0"
                         id="use1564"
                         style="overflow:visible"
                         xlink:href="#SVGID_67_" /></clipPath><rect
                       style="opacity:0.77999998;fill:#7e7f87"
                       clip-path="url(#SVGID_68_)"
                       id="rect1566"
                       height="33.900002"
                       width="33.900002"
                       class="st34"
                       y="326.10001"
                       x="708" /></g></g></g></g></g></g></g></g></g><g
     id="g1568"
     transform="translate(-15,-12)"><defs
       id="defs1570"><path
         inkscape:connector-curvature="0"
         d="m 728.6,345.2 0,-7.5 c 0,-0.3 -0.2,-0.6 -0.4,-0.7 -0.3,-0.1 -0.6,-0.1 -0.8,0.1 l -3.4,3.1 c 0,0 -0.1,0.1 -0.1,0.1 l -0.1,0 -3.3,-3.3 c -0.1,-0.1 -0.3,-0.1 -0.4,0 -0.1,0.1 -0.1,0.3 0,0.4 l 2.9,2.9 -2.3,0 c -0.4,0 -0.7,0.3 -0.7,0.7 l 0,3.7 c 0,0.4 0.3,0.7 0.7,0.7 l 3.1,0 c 0.1,0 0.1,0 0.1,0.1 l 3.4,3.1 c 0.1,0.1 0.3,0.2 0.5,0.2 0.1,0 0.2,0 0.3,-0.1 0.3,-0.1 0.4,-0.4 0.4,-0.7 l 0,-2 2.9,2.9 c 0.1,0.1 0.1,0.1 0.2,0.1 0.1,0 0.1,0 0.2,-0.1 0.1,-0.1 0.1,-0.3 0,-0.4 l -3.2,-3.3 z m -0.8,-7.6 c 0.1,-0.1 0.2,-0.1 0.2,0 0,0 0.1,0.1 0.1,0.2 l 0,7 -3.9,-3.9 c 0.1,0 0.1,-0.1 0.2,-0.1 l 3.4,-3.2 z m 0.3,10.7 c 0,0.1 -0.1,0.2 -0.1,0.2 0,0 -0.1,0 -0.2,0 l -3.4,-3.1 c -0.1,-0.1 -0.3,-0.2 -0.5,-0.2 l -3.1,0 c -0.1,0 -0.2,-0.1 -0.2,-0.2 l 0,-3.7 c 0,-0.1 0.1,-0.2 0.2,-0.2 l 2.8,0 4.5,4.5 0,2.7 z"
         id="SVGID_69_" /></defs><clipPath
       id="SVGID_70_"><use
         height="100%"
         width="100%"
         y="0"
         x="0"
         id="use1574"
         style="overflow:visible"
         xlink:href="#SVGID_69_" /></clipPath><g
       clip-path="url(#SVGID_70_)"
       id="g1576"
       class="st35"><defs
         id="defs1578"><rect
           height="2648"
           width="1024"
           y="-424"
           x="-212"
           id="SVGID_71_" /></defs><clipPath
         id="SVGID_72_"><use
           height="100%"
           width="100%"
           y="0"
           x="0"
           id="use1582"
           style="overflow:visible"
           xlink:href="#SVGID_71_" /></clipPath><rect
         style="fill:#f9f7f7"
         clip-path="url(#SVGID_72_)"
         id="rect1584"
         height="22"
         width="22"
         class="st36"
         y="332"
         x="715" /></g></g><g
     id="g1586"
     transform="translate(-15,-12)"><g
       style="opacity:0.46200005;enable-background:new"
       id="g1588"
       class="st4"><g
         id="g1590"><defs
           id="defs1592"><rect
             height="24"
             width="24"
             y="-534"
             x="446"
             id="SVGID_73_" /></defs><clipPath
           id="SVGID_74_"><use
             height="100%"
             width="100%"
             y="0"
             x="0"
             id="use1596"
             style="overflow:visible"
             xlink:href="#SVGID_73_" /></clipPath><g
           clip-path="url(#SVGID_74_)"
           id="g1598"
           class="st37"><defs
             id="defs1600"><rect
               height="23.9"
               width="23.9"
               y="-533.90002"
               x="446"
               id="SVGID_75_" /></defs><clipPath
             id="SVGID_76_"><use
               height="100%"
               width="100%"
               y="0"
               x="0"
               id="use1604"
               style="overflow:visible"
               xlink:href="#SVGID_75_" /></clipPath><g
             clip-path="url(#SVGID_76_)"
             id="g1606"
             class="st38"><defs
               id="defs1608"><rect
                 height="24"
                 width="24"
                 y="-534"
                 x="446"
                 id="SVGID_77_" /></defs><clipPath
               id="SVGID_78_"><use
                 height="100%"
                 width="100%"
                 y="0"
                 x="0"
                 id="use1612"
                 style="overflow:visible"
                 xlink:href="#SVGID_77_" /></clipPath><g
               style="enable-background:new"
               clip-path="url(#SVGID_78_)"
               id="g1614"
               class="st39"><g
                 id="g1616"><defs
                   id="defs1618"><rect
                     height="24"
                     width="24"
                     y="-534"
                     x="446"
                     id="SVGID_79_" /></defs><clipPath
                   id="SVGID_80_"><use
                     height="100%"
                     width="100%"
                     y="0"
                     x="0"
                     id="use1622"
                     style="overflow:visible"
                     xlink:href="#SVGID_79_" /></clipPath><g
                   clip-path="url(#SVGID_80_)"
                   id="g1624"
                   class="st40"><defs
                     id="defs1626"><path
                       inkscape:connector-curvature="0"
                       d="m 446,-529.6 0,15.3 c 0,2.4 1.9,4.3 4.3,4.3 l 15.3,0 c 2.4,0 4.3,-1.9 4.3,-4.3 l 0,-15.3 c 0,-2.4 -1.9,-4.3 -4.3,-4.3 l -15.3,0 c -2.4,0 -4.3,1.9 -4.3,4.3"
                       id="SVGID_81_" /></defs><clipPath
                     id="SVGID_82_"><use
                       height="100%"
                       width="100%"
                       y="0"
                       x="0"
                       id="use1630"
                       style="overflow:visible"
                       xlink:href="#SVGID_81_" /></clipPath><g
                     clip-path="url(#SVGID_82_)"
                     id="g1632"
                     class="st41"><defs
                       id="defs1634"><rect
                         height="24"
                         width="24"
                         y="-534"
                         x="446"
                         id="SVGID_83_" /></defs><clipPath
                       id="SVGID_84_"><use
                         height="100%"
                         width="100%"
                         y="0"
                         x="0"
                         id="use1638"
                         style="overflow:visible"
                         xlink:href="#SVGID_83_" /></clipPath><rect
                       style="opacity:0.77999998;fill:#7e7f87"
                       clip-path="url(#SVGID_84_)"
                       id="rect1640"
                       height="33.900002"
                       width="33.900002"
                       class="st42"
                       y="-538.90002"
                       x="441" /></g></g></g></g></g></g></g></g></g><g
     id="g1642"
     transform="translate(-15,-12)"><defs
       id="defs1644"><path
         inkscape:connector-curvature="0"
         d="m 461.6,-519.8 0,-7.5 c 0,-0.3 -0.2,-0.6 -0.4,-0.7 -0.3,-0.1 -0.6,-0.1 -0.8,0.1 l -3.4,3.1 c 0,0 -0.1,0.1 -0.1,0.1 l -0.1,0 -3.3,-3.3 c -0.1,-0.1 -0.3,-0.1 -0.4,0 -0.1,0.1 -0.1,0.3 0,0.4 l 2.9,2.9 -2.3,0 c -0.4,0 -0.7,0.3 -0.7,0.7 l 0,3.7 c 0,0.4 0.3,0.7 0.7,0.7 l 3.1,0 c 0.1,0 0.1,0 0.1,0.1 l 3.4,3.1 c 0.1,0.1 0.3,0.2 0.5,0.2 0.1,0 0.2,0 0.3,-0.1 0.3,-0.1 0.4,-0.4 0.4,-0.7 l 0,-2.2 2.9,2.9 c 0.1,0.1 0.1,0.1 0.2,0.1 0.1,0 0.1,0 0.2,-0.1 0.1,-0.1 0.1,-0.3 0,-0.4 l -3.2,-3.1 z m -0.8,-7.6 c 0.1,-0.1 0.2,-0.1 0.2,0 0,0 0.1,0.1 0.1,0.2 l 0,7 -3.9,-3.9 c 0.1,0 0.1,-0.1 0.2,-0.1 l 3.4,-3.2 z m 0.3,10.7 c 0,0.1 -0.1,0.2 -0.1,0.2 0,0 -0.1,0 -0.2,0 l -3.4,-3.1 c -0.1,-0.1 -0.3,-0.2 -0.5,-0.2 l -3.1,0 c -0.1,0 -0.2,-0.1 -0.2,-0.2 l 0,-3.7 c 0,-0.1 0.1,-0.2 0.2,-0.2 l 2.8,0 4.5,4.5 0,2.7 z"
         id="SVGID_85_" /></defs><clipPath
       id="SVGID_86_"><use
         height="100%"
         width="100%"
         y="0"
         x="0"
         id="use1648"
         style="overflow:visible"
         xlink:href="#SVGID_85_" /></clipPath><g
       clip-path="url(#SVGID_86_)"
       id="g1650"
       class="st43"><defs
         id="defs1652"><rect
           height="2648"
           width="1024"
           y="-1289"
           x="-479"
           id="SVGID_87_" /></defs><clipPath
         id="SVGID_88_"><use
           height="100%"
           width="100%"
           y="0"
           x="0"
           id="use1656"
           style="overflow:visible"
           xlink:href="#SVGID_87_" /></clipPath><rect
         style="fill:#f9f7f7"
         clip-path="url(#SVGID_88_)"
         id="rect1658"
         height="22"
         width="22"
         class="st44"
         y="-533"
         x="448" /></g></g><g
     id="g1660"
     transform="translate(-15,-12)"><g
       style="opacity:0.46200005;enable-background:new"
       id="g1662"
       class="st4"><g
         id="g1664"><defs
           id="defs1666"><rect
             height="24"
             width="24"
             y="331"
             x="713"
             id="SVGID_89_" /></defs><clipPath
           id="SVGID_90_"><use
             height="100%"
             width="100%"
             y="0"
             x="0"
             id="use1670"
             style="overflow:visible"
             xlink:href="#SVGID_89_" /></clipPath><g
           clip-path="url(#SVGID_90_)"
           id="g1672"
           class="st45"><defs
             id="defs1674"><rect
               height="23.9"
               width="23.9"
               y="331.10001"
               x="713"
               id="SVGID_91_" /></defs><clipPath
             id="SVGID_92_"><use
               height="100%"
               width="100%"
               y="0"
               x="0"
               id="use1678"
               style="overflow:visible"
               xlink:href="#SVGID_91_" /></clipPath><g
             clip-path="url(#SVGID_92_)"
             id="g1680"
             class="st46"><defs
               id="defs1682"><rect
                 height="24"
                 width="24"
                 y="331"
                 x="713"
                 id="SVGID_93_" /></defs><clipPath
               id="SVGID_94_"><use
                 height="100%"
                 width="100%"
                 y="0"
                 x="0"
                 id="use1686"
                 style="overflow:visible"
                 xlink:href="#SVGID_93_" /></clipPath><g
               style="enable-background:new"
               clip-path="url(#SVGID_94_)"
               id="g1688"
               class="st47"><g
                 id="g1690"><defs
                   id="defs1692"><rect
                     height="24"
                     width="24"
                     y="331"
                     x="713"
                     id="SVGID_95_" /></defs><clipPath
                   id="SVGID_96_"><use
                     height="100%"
                     width="100%"
                     y="0"
                     x="0"
                     id="use1696"
                     style="overflow:visible"
                     xlink:href="#SVGID_95_" /></clipPath><g
                   clip-path="url(#SVGID_96_)"
                   id="g1698"
                   class="st48"><defs
                     id="defs1700"><path
                       inkscape:connector-curvature="0"
                       d="m 713,335.4 0,15.3 c 0,2.4 1.9,4.3 4.3,4.3 l 15.3,0 c 2.4,0 4.3,-1.9 4.3,-4.3 l 0,-15.3 c 0,-2.4 -1.9,-4.3 -4.3,-4.3 l -15.3,0 c -2.4,0 -4.3,1.9 -4.3,4.3"
                       id="SVGID_97_" /></defs><clipPath
                     id="SVGID_98_"><use
                       height="100%"
                       width="100%"
                       y="0"
                       x="0"
                       id="use1704"
                       style="overflow:visible"
                       xlink:href="#SVGID_97_" /></clipPath><g
                     clip-path="url(#SVGID_98_)"
                     id="g1706"
                     class="st49"><defs
                       id="defs1708"><rect
                         height="24"
                         width="24"
                         y="331"
                         x="713"
                         id="SVGID_99_" /></defs><clipPath
                       id="SVGID_100_"><use
                         height="100%"
                         width="100%"
                         y="0"
                         x="0"
                         id="use1712"
                         style="overflow:visible"
                         xlink:href="#SVGID_99_" /></clipPath><rect
                       style="opacity:0.77999998;fill:#7e7f87"
                       clip-path="url(#SVGID_100_)"
                       id="rect1714"
                       height="33.900002"
                       width="33.900002"
                       class="st50"
                       y="326.10001"
                       x="708" /></g></g></g></g></g></g></g></g></g><g
     id="g1716"
     transform="translate(-15,-12)"><defs
       id="defs1718"><path
         inkscape:connector-curvature="0"
         d="m 728.6,345.2 0,-7.5 c 0,-0.3 -0.2,-0.6 -0.4,-0.7 -0.3,-0.1 -0.6,-0.1 -0.8,0.1 l -3.4,3.1 c 0,0 -0.1,0.1 -0.1,0.1 l -0.1,0 -3.3,-3.3 c -0.1,-0.1 -0.3,-0.1 -0.4,0 -0.1,0.1 -0.1,0.3 0,0.4 l 2.9,2.9 -2.3,0 c -0.4,0 -0.7,0.3 -0.7,0.7 l 0,3.7 c 0,0.4 0.3,0.7 0.7,0.7 l 3.1,0 c 0.1,0 0.1,0 0.1,0.1 l 3.4,3.1 c 0.1,0.1 0.3,0.2 0.5,0.2 0.1,0 0.2,0 0.3,-0.1 0.3,-0.1 0.4,-0.4 0.4,-0.7 l 0,-2 2.9,2.9 c 0.1,0.1 0.1,0.1 0.2,0.1 0.1,0 0.1,0 0.2,-0.1 0.1,-0.1 0.1,-0.3 0,-0.4 l -3.2,-3.3 z m -0.8,-7.6 c 0.1,-0.1 0.2,-0.1 0.2,0 0,0 0.1,0.1 0.1,0.2 l 0,7 -3.9,-3.9 c 0.1,0 0.1,-0.1 0.2,-0.1 l 3.4,-3.2 z m 0.3,10.7 c 0,0.1 -0.1,0.2 -0.1,0.2 0,0 -0.1,0 -0.2,0 l -3.4,-3.1 c -0.1,-0.1 -0.3,-0.2 -0.5,-0.2 l -3.1,0 c -0.1,0 -0.2,-0.1 -0.2,-0.2 l 0,-3.7 c 0,-0.1 0.1,-0.2 0.2,-0.2 l 2.8,0 4.5,4.5 0,2.7 z"
         id="SVGID_101_" /></defs><clipPath
       id="SVGID_102_"><use
         height="100%"
         width="100%"
         y="0"
         x="0"
         id="use1722"
         style="overflow:visible"
         xlink:href="#SVGID_101_" /></clipPath><g
       clip-path="url(#SVGID_102_)"
       id="g1724"
       class="st51"><defs
         id="defs1726"><rect
           height="2648"
           width="1024"
           y="-424"
           x="-212"
           id="SVGID_103_" /></defs><clipPath
         id="SVGID_104_"><use
           height="100%"
           width="100%"
           y="0"
           x="0"
           id="use1730"
           style="overflow:visible"
           xlink:href="#SVGID_103_" /></clipPath><rect
         style="fill:#f9f7f7"
         clip-path="url(#SVGID_104_)"
         id="rect1732"
         height="22"
         width="22"
         class="st52"
         y="332"
         x="715" /></g></g><g
     id="g1734"
     transform="translate(-15,-12)"><g
       style="opacity:0.38280005;enable-background:new"
       id="g1736"
       class="st53"><g
         id="g1738"><defs
           id="defs1740"><rect
             height="24"
             width="24"
             y="12"
             x="15"
             id="SVGID_105_" /></defs><clipPath
           id="SVGID_106_"><use
             height="100%"
             width="100%"
             y="0"
             x="0"
             id="use1744"
             style="overflow:visible"
             xlink:href="#SVGID_105_" /></clipPath><g
           clip-path="url(#SVGID_106_)"
           id="g1746"
           class="st54"><defs
             id="defs1748"><rect
               height="23.9"
               width="23.9"
               y="12"
               x="15"
               id="SVGID_107_" /></defs><clipPath
             id="SVGID_108_"><use
               height="100%"
               width="100%"
               y="0"
               x="0"
               id="use1752"
               style="overflow:visible"
               xlink:href="#SVGID_107_" /></clipPath><g
             clip-path="url(#SVGID_108_)"
             id="g1754"
             class="st55"><defs
               id="defs1756"><rect
                 height="24"
                 width="24"
                 y="12"
                 x="15"
                 id="SVGID_109_" /></defs><clipPath
               id="SVGID_110_"><use
                 height="100%"
                 width="100%"
                 y="0"
                 x="0"
                 id="use1760"
                 style="overflow:visible"
                 xlink:href="#SVGID_109_" /></clipPath><g
               style="enable-background:new"
               clip-path="url(#SVGID_110_)"
               id="g1762"
               class="st56"><g
                 id="g1764"><defs
                   id="defs1766"><rect
                     height="24"
                     width="24"
                     y="12"
                     x="15"
                     id="SVGID_111_" /></defs><clipPath
                   id="SVGID_112_"><use
                     height="100%"
                     width="100%"
                     y="0"
                     x="0"
                     id="use1770"
                     style="overflow:visible"
                     xlink:href="#SVGID_111_" /></clipPath><g
                   clip-path="url(#SVGID_112_)"
                   id="g1772"
                   class="st57"><defs
                     id="defs1774"><path
                       inkscape:connector-curvature="0"
                       d="M 34.6,12 19.3,12 C 16.9,12 15,13.9 15,16.3 l 0,15.3 c 0,2.4 1.9,4.3 4.3,4.3 l 15.3,0 c 2.4,0 4.3,-1.9 4.3,-4.3 l 0,-15.3 C 38.9,13.9 37,12 34.6,12 M 24,23.9 c 0,0 0,0.1 0,0.1 l 4.6,2.3 C 29,26 29.5,25.8 30,25.8 c 1.2,0 2.2,1 2.2,2.2 0,1.2 -1,2.2 -2.2,2.2 -1.2,0 -2.2,-1 -2.2,-2.2 0,0 0,-0.1 0,-0.1 l -4.6,-2.3 c -0.4,0.3 -0.9,0.5 -1.4,0.5 -1.2,0 -2.2,-1 -2.2,-2.2 0,-1.2 1,-2.2 2.2,-2.2 0.6,0 1.1,0.2 1.4,0.5 l 4.6,-2.3 c 0,0 0,-0.1 0,-0.1 0,-1.2 1,-2.2 2.2,-2.2 1.2,0 2.2,1 2.2,2.2 0,1.2 -1,2.2 -2.2,2.2 -0.6,0 -1.1,-0.2 -1.4,-0.5 L 24,23.8 c 0,0.1 0,0.1 0,0.1"
                       id="SVGID_113_" /></defs><clipPath
                     id="SVGID_114_"><use
                       height="100%"
                       width="100%"
                       y="0"
                       x="0"
                       id="use1778"
                       style="overflow:visible"
                       xlink:href="#SVGID_113_" /></clipPath><g
                     clip-path="url(#SVGID_114_)"
                     id="g1780"
                     class="st58"><defs
                       id="defs1782"><rect
                         height="24"
                         width="24"
                         y="12"
                         x="15"
                         id="SVGID_115_" /></defs><clipPath
                       id="SVGID_116_"><use
                         height="100%"
                         width="100%"
                         y="0"
                         x="0"
                         id="use1786"
                         style="overflow:visible"
                         xlink:href="#SVGID_115_" /></clipPath><rect
                       style="fill:#7e7f87"
                       clip-path="url(#SVGID_116_)"
                       id="rect1788"
                       height="33.900002"
                       width="33.900002"
                       class="st59"
                       y="7"
                       x="10" /></g></g></g></g></g></g></g></g></g></svg>